<?xml version="1.0" encoding="UTF-8"?>
<svg version="1.1" xmlns="http://www.w3.org/2000/svg" width="512" height="512">
<path d="M0 0 C0.73604173 -0.00367669 1.47208345 -0.00735338 2.23042947 -0.01114148 C4.70378231 -0.02217937 7.17709313 -0.02602234 9.65046692 -0.02983093 C11.4211592 -0.03609554 13.19185016 -0.04274234 14.96253967 -0.04974365 C20.78404321 -0.07078802 26.60554702 -0.08114689 32.42707825 -0.09111023 C34.43127773 -0.09515775 36.43547708 -0.09927467 38.43967628 -0.10346031 C47.85617481 -0.12251338 57.2726655 -0.13674376 66.6891796 -0.14507228 C77.55722888 -0.15484336 88.42507441 -0.18115907 99.2930519 -0.22157317 C107.69401891 -0.25174066 116.09492754 -0.26654179 124.49594766 -0.26985329 C129.51305796 -0.27220321 134.52995062 -0.28115599 139.54700279 -0.30631447 C144.26909686 -0.32961098 148.99083025 -0.33382204 153.71296692 -0.32355309 C155.44312045 -0.32305799 157.17329183 -0.32937078 158.90339088 -0.34310913 C175.60810723 -0.46830158 175.60810723 -0.46830158 181.8216095 4.14717102 C185.44146375 8.3068971 186.31883593 11.24802744 186.27571106 16.70332336 C186.27525787 18.62463577 186.27525787 18.62463577 186.27479553 20.58476257 C186.25437361 21.967551 186.23350971 23.35033296 186.2122345 24.73310852 C186.20476624 26.15942082 186.19907607 27.58574344 186.19508362 29.0120697 C186.17987298 32.75071464 186.14063207 36.48872959 186.0962677 40.22712708 C186.05521534 44.04804464 186.03705146 47.86906484 186.016922 51.69013977 C185.9741321 59.17610283 185.90593784 66.66154837 185.8216095 74.14717102 C186.90700012 74.11236633 187.99239075 74.07756165 189.110672 74.04170227 C190.55596892 74.01354714 192.00128271 73.98624883 193.4466095 73.95967102 C194.15946106 73.9345343 194.87231262 73.90939758 195.60676575 73.88349915 C200.43419732 73.8170666 203.62541914 74.50813625 207.8216095 77.14717102 C212.2502275 82.05455854 212.9462559 84.60579531 212.93513489 91.16719055 C212.93528091 91.88924683 212.93542694 92.6113031 212.93557739 93.35523987 C212.93487957 95.74685143 212.92709325 98.13838553 212.91926575 100.52998352 C212.91740111 102.18622292 212.91597742 103.84246286 212.91497803 105.498703 C212.91115648 109.8618471 212.90132928 114.22495802 212.89027405 118.58808899 C212.88005214 123.03876802 212.87547873 127.48945239 212.87043762 131.94013977 C212.8597067 140.6758321 212.84263461 149.41149743 212.8216095 158.14717102 C213.954207 158.14050919 215.0868045 158.13384735 216.25372314 158.12698364 C226.9495262 158.06605644 237.64529385 158.02114268 248.34123135 157.9917345 C253.83956598 157.976107 259.33776005 157.95492197 264.83601379 157.92085266 C270.1463464 157.8881553 275.45654414 157.87029609 280.76696968 157.86253929 C282.78867273 157.8570144 284.81036875 157.84622573 286.83201408 157.82998085 C289.67302534 157.80806866 292.51348575 157.80520985 295.35456848 157.80659485 C296.18247894 157.79580902 297.0103894 157.78502319 297.86338806 157.77391052 C306.0537595 157.81685794 313.21882402 159.73695828 319.31770325 165.39717102 C324.33355029 171.23379304 325.95005069 177.67907951 325.91926575 185.22138977 C325.91714333 186.2471386 325.91714333 186.2471386 325.91497803 187.29360962 C325.90938826 189.47400824 325.89683771 191.65430353 325.8841095 193.83467102 C325.87909317 195.31448724 325.87453049 196.79430508 325.87043762 198.27412415 C325.85942221 201.89850659 325.84216462 205.52282872 325.8216095 209.14717102 C327.12356262 209.11236633 328.42551575 209.07756165 329.766922 209.04170227 C331.49347154 209.01355201 333.2200351 208.98625318 334.9466095 208.95967102 C335.802547 208.9345343 336.6584845 208.90939758 337.5403595 208.88349915 C343.51126442 208.81460409 347.82992231 209.48236652 352.46614075 213.61201477 C356.43822744 218.620298 356.94369291 221.87386436 356.96878052 228.15504456 C356.97951347 230.00127159 356.97951347 230.00127159 356.99046326 231.88479614 C356.99330331 233.2460172 356.99601506 234.60723854 356.99861145 235.96846008 C357.00487909 237.40432906 357.01152616 238.84019641 357.01852417 240.27606201 C357.03953067 244.98829527 357.04992313 249.70052872 357.05989075 254.41279602 C357.06393953 256.03717312 357.06805649 257.66155006 357.07224083 259.28592682 C357.09128474 266.91800729 357.10551764 274.55007813 357.1138528 282.18217778 C357.1236236 290.98269003 357.14994225 299.78295066 357.19035369 308.58337426 C357.22054267 315.39201831 357.23532429 322.20059033 357.23863381 329.00929999 C357.24098105 333.07291066 357.24989883 337.13625227 357.27509499 341.19979095 C357.29842979 345.02481507 357.3025875 348.84939397 357.2923336 352.6744709 C357.29183945 354.07405392 357.29812444 355.47365926 357.31188965 356.87317467 C357.45137049 371.90164573 357.45137049 371.90164573 352.8216095 377.14717102 C348.44788786 380.652508 345.5618092 381.64558038 339.98789978 381.62818909 C339.3253213 381.63160679 338.66274282 381.63502449 337.98008621 381.63854575 C335.77332885 381.64510273 333.5678044 381.62318719 331.36116028 381.60127258 C329.77408883 381.60014362 328.1870153 381.60077892 326.59994507 381.6030426 C322.30066683 381.60418879 318.00183631 381.58069515 313.70266199 381.55274677 C309.20635411 381.5277171 304.71003562 381.52538989 300.21366882 381.52064514 C291.70331287 381.50821996 283.1931628 381.47540456 274.68289745 381.43524718 C264.99252438 381.39051522 255.3021414 381.36853885 245.61169076 381.34846544 C225.68154882 381.30667152 205.75159214 381.23632836 185.8216095 381.14717102 C185.83049194 382.09850922 185.83937439 383.04984741 185.848526 384.03001404 C185.9296887 393.00492556 185.98961171 401.97976241 186.02885818 410.95495796 C186.04971375 415.56898953 186.07799412 420.18272431 186.12336731 424.79658508 C186.16689777 429.25105065 186.19076188 433.70523114 186.20111847 438.15989304 C186.20849694 439.85754253 186.22290556 441.55517681 186.24452972 443.25270462 C186.2736603 445.63469645 186.2775616 448.01551738 186.27571106 450.3976593 C186.29009216 451.09609451 186.30447327 451.79452972 186.31929016 452.51412964 C186.2774366 457.50838578 184.95131724 460.30619984 181.8216095 464.14717102 C174.29243652 469.72995126 165.35186067 468.70328208 156.39338684 468.64888 C154.61870903 468.65266648 152.84403417 468.65816922 151.06936646 468.66525269 C146.26574508 468.6791797 141.46248298 468.66805779 136.65888166 468.65154147 C131.62617702 468.63766292 126.59349264 468.64415408 121.56077576 468.64767456 C113.11250537 468.65037396 104.66437728 468.63692256 96.21614075 468.61372375 C86.45259802 468.58709852 76.6892929 468.58537341 66.92572629 468.59711212 C57.52522265 468.6078942 48.12480485 468.60170055 38.72430801 468.58755684 C34.72682793 468.58180252 30.72941078 468.58187533 26.73192978 468.58662224 C22.02537332 468.59139756 17.31907683 468.5812673 12.61256981 468.55966759 C10.88643076 468.55410776 9.16026668 468.55362704 7.4341259 468.55862045 C5.07605087 468.56458609 2.71876734 468.55204446 0.36076355 468.53485107 C-0.95807138 468.53242118 -2.27690632 468.52999128 -3.63570595 468.52748775 C-8.10686875 468.04749638 -11.48444915 466.69223867 -14.82292175 463.64717102 C-18.73714268 458.6202117 -19.32413685 455.11028268 -19.29191589 448.92182922 C-19.29206192 448.18987335 -19.29220795 447.45791748 -19.2923584 446.70378113 C-19.2916619 444.28514133 -19.28388179 441.86657861 -19.27604675 439.44795227 C-19.27418164 437.77072186 -19.27275818 436.09349091 -19.27175903 434.41625977 C-19.2679412 430.0021667 -19.25811716 425.58810655 -19.24705505 421.17402649 C-19.23682517 416.66963649 -19.23225803 412.16524117 -19.22721863 407.6608429 C-19.21649425 398.82293781 -19.19942662 389.98505715 -19.1783905 381.14717102 C-19.78100016 381.15085819 -20.38360981 381.15454536 -21.00448036 381.15834427 C-35.67738628 381.24673895 -50.35027644 381.31290183 -65.023386 381.35441971 C-72.11925961 381.37503194 -79.21495531 381.40312661 -86.31071472 381.44892883 C-93.15771039 381.4931042 -100.00452104 381.51630487 -106.85165024 381.52667999 C-109.46476018 381.53407438 -112.07785995 381.5485137 -114.69089127 381.57009125 C-118.3492194 381.59910079 -122.00678238 381.60312787 -125.66520691 381.60127258 C-126.7470224 381.61565369 -127.82883789 381.63003479 -128.94343567 381.64485168 C-135.00008215 381.61158546 -138.61891682 381.27839671 -143.1783905 377.14717102 C-147.44141978 371.84120598 -147.77102461 365.87569272 -147.7096405 359.31904602 C-147.71346741 358.40761841 -147.71729431 357.4961908 -147.72123718 356.55714417 C-147.72394309 354.64443344 -147.71667508 352.73168487 -147.69987488 350.81904602 C-147.67834608 347.89112977 -147.69977189 344.96563935 -147.7252655 342.03779602 C-147.72262393 340.17320728 -147.71750249 338.30862005 -147.7096405 336.44404602 C-147.72178589 335.13461029 -147.72178589 335.13461029 -147.73417664 333.79872131 C-147.63995323 327.71017363 -147.63995323 327.71017363 -145.18327332 324.71357727 C-144.52166199 324.19666321 -143.86005066 323.67974915 -143.1783905 323.14717102 C-142.49305419 320.80678341 -142.49305419 320.80678341 -142.4283905 318.39717102 C-142.37167175 317.59795227 -142.314953 316.79873352 -142.2565155 315.97529602 C-142.23073425 315.37201477 -142.204953 314.76873352 -142.1783905 314.14717102 C-143.137453 313.72564758 -143.137453 313.72564758 -144.1158905 313.29560852 C-146.1783905 312.14717102 -146.1783905 312.14717102 -147.1783905 309.77217102 C-147.1783905 308.90592102 -147.1783905 308.03967102 -147.1783905 307.14717102 C-146.2502655 306.28092102 -146.2502655 306.28092102 -145.3033905 305.39717102 C-142.16081025 302.06973311 -142.36785015 298.58052673 -142.1783905 294.14717102 C-142.8177655 293.85842102 -143.4571405 293.56967102 -144.1158905 293.27217102 C-146.1783905 292.14717102 -146.1783905 292.14717102 -147.1783905 290.14717102 C-147.2855512 288.02981578 -147.32728138 285.90904663 -147.33952332 283.78901672 C-147.34697067 282.81058052 -147.34697067 282.81058052 -147.35456848 281.81237793 C-147.36920003 279.64922536 -147.37599548 277.48614625 -147.3815155 275.32295227 C-147.38726836 273.81800332 -147.39302607 272.31305438 -147.39878845 270.80810547 C-147.40930278 267.64809325 -147.41514188 264.48810648 -147.41862488 261.32807922 C-147.42409527 257.29082534 -147.44808992 253.25391117 -147.47659683 249.2167635 C-147.49528357 246.10510296 -147.50043212 242.99352303 -147.50196075 239.88181114 C-147.50497676 238.39434652 -147.5129696 236.90688297 -147.52614594 235.41947365 C-147.5433254 233.33015835 -147.54129737 231.2416565 -147.53483582 229.15229797 C-147.53848145 227.96586197 -147.54212708 226.77942596 -147.54588318 225.55703735 C-147.05169592 220.97160581 -145.74614845 216.96805656 -142.6783905 213.40498352 C-138.7831132 210.46323764 -136.03479902 209.01291231 -131.16667175 209.04951477 C-130.03068542 209.05434875 -130.03068542 209.05434875 -128.87174988 209.0592804 C-127.69322449 209.07184875 -127.69322449 209.07184875 -126.4908905 209.08467102 C-125.69360535 209.08918274 -124.89632019 209.09369446 -124.07487488 209.0983429 C-122.10934794 209.11011252 -120.14385965 209.12804754 -118.1783905 209.14717102 C-118.19933777 208.25522034 -118.22028503 207.36326965 -118.24186707 206.44429016 C-118.31055136 203.09506134 -118.36043378 199.74659434 -118.39811707 196.39692688 C-118.41807801 194.9547485 -118.44525714 193.51264942 -118.48014832 192.070755 C-118.67673602 183.73023237 -118.70383894 176.48883506 -114.1783905 169.14717102 C-113.6215155 168.23967102 -113.0646405 167.33217102 -112.4908905 166.39717102 C-106.7258854 160.78797687 -100.0159053 158.01390985 -92.04264832 158.03364563 C-91.02189209 158.03372116 -90.00113586 158.03379669 -88.94944763 158.03387451 C-87.85453003 158.0390358 -86.75961243 158.04419708 -85.6315155 158.04951477 C-83.94200775 158.05163719 -83.94200775 158.05163719 -82.21836853 158.05380249 C-78.62168215 158.05939903 -75.02505806 158.07195092 -71.4283905 158.08467102 C-68.98958932 158.08968647 -66.55078716 158.0942493 -64.11198425 158.0983429 C-58.13409842 158.10936732 -52.15624891 158.12610204 -46.1783905 158.14717102 C-46.19171417 156.7986631 -46.19171417 156.7986631 -46.20530701 155.4229126 C-46.28558931 146.93393062 -46.34642416 138.4450769 -46.38563919 129.95580196 C-46.40647817 125.59177336 -46.4347278 121.22805952 -46.48014832 116.86421204 C-46.52373855 112.6496428 -46.54755535 108.43537556 -46.55789948 104.22059822 C-46.5652673 102.61587841 -46.57965502 101.01117438 -46.60131073 99.40658379 C-46.63052136 97.15170475 -46.63433936 94.89805965 -46.63249207 92.64302063 C-46.64137451 91.36172775 -46.65025696 90.08043488 -46.65940857 88.76031494 C-46.00743219 83.86302592 -44.18548894 80.08623222 -40.56510925 76.58857727 C-35.88244424 74.16650916 -31.58082413 73.94891866 -26.38542175 74.04951477 C-25.69114075 74.05656433 -24.99685974 74.06361389 -24.28153992 74.07087708 C-22.58039836 74.08916892 -20.87936619 74.11718908 -19.1783905 74.14717102 C-19.18838326 73.00204544 -19.18838326 73.00204544 -19.19857788 71.83378601 C-19.25879213 64.6247637 -19.30441706 57.41586404 -19.33382702 50.2066555 C-19.34945551 46.50068268 -19.3706417 42.79491838 -19.40470886 39.08906555 C-19.4374037 35.50992927 -19.4552647 31.93099304 -19.46302223 28.3517189 C-19.46854767 26.98901345 -19.47933754 25.62631843 -19.49558067 24.26369858 C-19.51748686 22.34915171 -19.51861703 20.43440177 -19.51896667 18.51972961 C-19.52895943 16.88758011 -19.52895943 16.88758011 -19.53915405 15.22245789 C-19.04450967 11.00591949 -17.54826976 7.64904385 -14.6783905 4.50263977 C-9.67404942 0.60603043 -6.1612021 -0.00164607 0 0 Z " fill="#040403" transform="translate(151.1783905029297,21.852828979492188)"/>
<path d="M0 0 C0.73619157 -0.00467997 1.47238314 -0.00935994 2.23088354 -0.01418173 C4.70459544 -0.02617444 7.17775771 -0.01665814 9.651474 -0.00723267 C11.42205123 -0.01129644 13.19262593 -0.01663723 14.9631958 -0.02316284 C19.77711149 -0.03686435 24.59083477 -0.03152639 29.40475392 -0.02202559 C34.4353585 -0.01444484 39.46594631 -0.02147007 44.49655151 -0.02618408 C52.94438138 -0.03164576 61.39213262 -0.02443868 69.83995056 -0.01016235 C79.61766228 0.00617022 89.3951864 0.00087289 99.17289358 -0.01564157 C107.55764567 -0.02923841 115.94234115 -0.0311851 124.32710069 -0.02332556 C129.33948782 -0.01863979 134.35178665 -0.01804904 139.36416817 -0.02793503 C144.07473636 -0.03657643 148.78506171 -0.03063479 153.49560356 -0.01325226 C155.22826102 -0.00927247 156.96093878 -0.0104468 158.69358826 -0.01704025 C161.05113199 -0.0251872 163.4078879 -0.01501841 165.76538086 0 C166.45787951 -0.00669217 167.15037816 -0.01338433 167.86386162 -0.02027929 C169.77035618 0.00342751 169.77035618 0.00342751 172.81919861 0.38095093 C175.13296698 3.85160349 175.06678177 5.15409341 175.05970764 9.24647522 C175.06383163 11.08273972 175.06383163 11.08273972 175.06803894 12.95610046 C175.06096068 14.31475928 175.05369107 15.6734171 175.04624939 17.03207397 C175.04568532 18.46106966 175.04600176 19.89006593 175.0471344 21.31906128 C175.04770907 25.20104185 175.03593634 29.08289924 175.02198648 32.96485114 C175.00949812 37.02076582 175.00831012 41.0766832 175.00593567 45.13261414 C174.99971532 52.81426482 174.98329702 60.49585869 174.96323669 68.17748433 C174.94089493 76.92224048 174.9298886 85.66699932 174.91984582 94.4117769 C174.89893126 112.40153381 174.86374452 130.3912378 174.81919861 148.38095093 C173.94445389 148.39125839 173.06970917 148.40156586 172.16845703 148.41218567 C163.94237503 148.50998603 155.71636789 148.61247506 147.4904108 148.72029018 C143.26092247 148.7755578 139.03142728 148.82898378 134.80186462 148.87826538 C130.72345198 148.92585252 126.64512599 148.97819301 122.56681633 149.03389168 C121.00744713 149.05434093 119.44805415 149.07304968 117.88864326 149.09002495 C115.7118427 149.11401237 113.53520736 149.14407411 111.35850525 149.17562866 C110.11718338 149.19117294 108.87586151 149.20671722 107.59692383 149.22273254 C104.91176645 149.06646606 104.91176645 149.06646606 103.81919861 150.38095093 C103.77826923 152.71392526 103.77678138 155.04800317 103.81919861 157.38095093 C105.35563947 157.38315077 105.35563947 157.38315077 106.92311954 157.38539505 C131.84442804 157.42198718 156.76560211 157.48143306 181.68679905 157.56485367 C193.73850287 157.60466595 205.79014119 157.63704736 217.84190369 157.65194702 C228.34600686 157.66495214 238.84996603 157.69188778 249.35398811 157.73556399 C254.91600249 157.75820429 260.47783909 157.77386006 266.03990364 157.77283478 C271.27581953 157.7720897 276.51134202 157.78997978 281.74715614 157.82211876 C283.66797848 157.83063263 285.58884486 157.83235761 287.50967789 157.82675362 C290.13512578 157.82011461 292.75932169 157.83803147 295.38464355 157.86196899 C296.14244332 157.85420858 296.90024309 157.84644816 297.68100649 157.83845258 C303.12984518 157.92622998 306.31320646 159.29210534 310.81919861 162.38095093 C316.42044533 168.82238465 315.26880589 176.75036244 315.06919861 184.81845093 C315.04910691 186.23183714 315.03086084 187.64525085 315.01451111 189.0586853 C314.97071678 192.50001776 314.90183764 195.94030668 314.81919861 199.38095093 C313.61729889 199.38681717 312.41539917 199.39268341 311.17707825 199.39872742 C299.847384 199.45595345 288.51788172 199.52871468 277.1883831 199.61666584 C271.36383829 199.66138316 265.53936366 199.70063648 259.71470642 199.72738647 C254.09303091 199.75340556 248.47162524 199.79379858 242.85011673 199.84413719 C240.70597313 199.86081525 238.56178285 199.87232367 236.41758347 199.87856483 C233.4129842 199.88819549 230.40907672 199.91624316 227.40464783 199.94857788 C226.07647285 199.94642525 226.07647285 199.94642525 224.72146606 199.94422913 C219.71370196 200.02038935 216.05561456 200.42770106 211.81919861 203.38095093 C205.6485063 211.51123141 205.6485063 211.51123141 206.81919861 233.38095093 C124.64919861 233.38095093 42.47919861 233.38095093 -42.18080139 233.38095093 C-42.67580139 221.00595093 -42.67580139 221.00595093 -43.18080139 208.38095093 C-46.51313093 202.69695991 -46.51313093 202.69695991 -52.18080139 200.38095093 C-56.53167532 199.92405435 -60.8633818 199.8922101 -65.23548889 199.86923218 C-66.49217377 199.85128098 -67.74885864 199.83332977 -69.04362488 199.81483459 C-72.36775763 199.76994181 -75.69152478 199.73759052 -79.01582336 199.71139526 C-82.41470062 199.68149759 -85.81334738 199.6349992 -89.21205139 199.5899353 C-95.86819465 199.50503459 -102.52435336 199.43667243 -109.18080139 199.38095093 C-109.24263272 195.91839661 -109.30424649 192.45584185 -109.36427307 188.99325562 C-109.40138518 186.97817047 -109.4413899 184.96311378 -109.4924469 182.94833374 C-109.87885908 167.60031294 -109.87885908 167.60031294 -105.18080139 162.38095093 C-100.68458597 158.86802009 -97.77696709 157.87972464 -92.09480286 157.86869812 C-91.06017454 157.85850459 -91.06017454 157.85850459 -90.00464463 157.84810513 C-87.70593786 157.8302246 -85.40825213 157.84059447 -83.10951233 157.85092163 C-81.45671271 157.84382082 -79.80391987 157.8349561 -78.15113831 157.82446289 C-73.67208183 157.80088075 -69.19331691 157.80158089 -64.71421337 157.80637765 C-60.02790964 157.80697122 -55.34172245 157.78427858 -50.6554718 157.7638092 C-41.7828064 157.72840912 -32.91022291 157.71238271 -24.0374949 157.70403403 C-11.00028939 157.6910647 2.03684806 157.65283289 15.07398605 157.60993481 C16.02889065 157.60679612 16.98379525 157.60365743 17.96763635 157.60042363 C19.87092683 157.59414408 21.77421711 157.58780053 23.67750716 157.58139104 C29.26169666 157.56329545 34.8458457 157.55221153 40.43006182 157.54709399 C43.89581592 157.54327085 47.36155526 157.53566145 50.82730103 157.52728653 C52.43902105 157.52431856 54.05074532 157.52309219 55.66246796 157.52369881 C57.85539221 157.52436245 60.04822274 157.51904065 62.24113464 157.51225281 C64.08501455 157.51036689 64.08501455 157.51036689 65.96614456 157.50844288 C68.76577246 157.5771803 68.76577246 157.5771803 70.81919861 156.38095093 C70.86174217 154.38140347 70.86000644 152.38053456 70.81919861 150.38095093 C68.85573142 148.41748374 65.04692629 149.19638647 62.36192322 149.17562866 C61.58149155 149.16572906 60.80105988 149.15582947 59.99697876 149.14562988 C57.40519798 149.11392318 54.81339884 149.08922143 52.22154236 149.06454468 C50.42934683 149.04398305 48.63715624 149.0229868 46.8449707 149.00157166 C42.11854541 148.94626917 37.39207576 148.8968961 32.66557312 148.84872437 C27.84629856 148.79856888 23.02708873 148.74285182 18.20787048 148.68759155 C8.7450351 148.57991004 -0.71785639 148.47848741 -10.18080139 148.38095093 C-10.25082978 129.5271363 -10.30375925 110.67334799 -10.33623791 91.81943035 C-10.351718 83.06556035 -10.37282926 74.31177107 -10.40711975 65.55795288 C-10.43698723 57.92963302 -10.45636808 50.30137162 -10.46306688 42.67299491 C-10.46698366 38.63243966 -10.47621215 34.59205165 -10.49799156 30.55154991 C-10.51831495 26.75046524 -10.52464368 22.94961712 -10.52012444 19.14848328 C-10.52095151 17.75164315 -10.52694198 16.35479532 -10.53841782 14.95800209 C-10.55329514 13.05421764 -10.54797855 11.150307 -10.54156494 9.24647522 C-10.54433032 8.17996074 -10.5470957 7.11344625 -10.54994488 6.01461315 C-10.18080139 3.38095093 -10.18080139 3.38095093 -9.10705376 1.53816509 C-6.1890152 -0.21487392 -3.30491736 -0.03204126 0 0 Z " fill="#72C2E8" transform="translate(152.18080139160156,32.619049072265625)"/>
<path d="M0 0 C0.69318077 0.00377932 1.38636154 0.00755865 2.10054779 0.0114525 C2.83588493 0.00762695 3.57122208 0.0038014 4.32884216 -0.00014007 C6.80555006 -0.01050145 9.28202747 -0.00647207 11.75875092 -0.0025093 C13.52917954 -0.00685401 15.29960629 -0.01203635 17.07003021 -0.01799697 C21.8880953 -0.03142328 26.70608213 -0.03196168 31.52416229 -0.02943367 C35.54037106 -0.02836654 39.55656382 -0.03324061 43.57276917 -0.03803909 C53.04362934 -0.04914657 62.51444987 -0.04956453 71.98531342 -0.04352492 C81.77038076 -0.03748112 91.55530446 -0.04980363 101.34034729 -0.07109499 C109.72931844 -0.08868045 118.11824375 -0.09471724 126.50723267 -0.09145725 C131.52299655 -0.08963956 136.53865794 -0.09232882 141.55440521 -0.10617179 C146.26905048 -0.11869617 150.98347089 -0.1168575 155.69811249 -0.1037609 C157.43238652 -0.10138385 159.16667611 -0.10416984 160.90093231 -0.11238402 C163.26070499 -0.12275845 165.61971001 -0.11482702 167.97945404 -0.10207289 C168.67263481 -0.10944718 169.36581558 -0.11682146 170.08000183 -0.12441921 C171.98836517 -0.1025812 171.98836517 -0.1025812 175.04000092 0.27214891 C177.30399444 3.66813919 177.28784626 4.8160511 177.28050995 8.79599839 C177.28464244 10.51508928 177.28464244 10.51508928 177.28885841 12.26890928 C177.27806409 14.16386372 177.27806409 14.16386372 177.2670517 16.09710008 C177.26643908 17.45913921 177.26670592 18.82117898 177.26778221 20.18321782 C177.2682341 23.83372691 177.25663476 27.48410512 177.24256134 31.13458329 C177.23117918 34.5589014 177.23063552 37.98318752 177.2292099 41.40752488 C177.21871142 51.42491692 177.19078916 61.44228456 177.16500092 71.45964891 C177.12375092 93.83777391 177.08250092 116.21589891 177.04000092 139.27214891 C116.32000092 139.27214891 55.60000092 139.27214891 -6.95999908 139.27214891 C-7.00124908 116.70839891 -7.04249908 94.14464891 -7.08499908 70.89714891 C-7.10320709 63.76299363 -7.1214151 56.62883836 -7.14017487 49.27849656 C-7.14920807 40.5912407 -7.14920807 40.5912407 -7.15088654 36.5290764 C-7.15275577 33.68163282 -7.16027414 30.83426323 -7.17115021 27.98684007 C-7.18482198 24.35968912 -7.18899006 20.73264647 -7.18614364 17.10547215 C-7.1870212 15.13959652 -7.19777221 13.17373299 -7.20885658 11.20788842 C-7.20610159 10.0548088 -7.2033466 8.90172918 -7.20050812 7.71370775 C-7.2023517 6.70526622 -7.20419529 5.6968247 -7.20609474 4.65782434 C-6.72242335 -0.03093357 -4.11533077 0.03811199 0 0 Z " fill="#EEEEEE" transform="translate(149.95999908447266,32.7278510928154)"/>
<path d="M0 0 C1.04321411 -0.00563965 2.08642822 -0.0112793 3.16125488 -0.01708984 C4.31041382 -0.01304138 5.45957275 -0.00899292 6.64355469 -0.00482178 C7.8500769 -0.00832642 9.05659912 -0.01183105 10.29968262 -0.01544189 C13.61372989 -0.02275082 16.9275284 -0.02101698 20.24156189 -0.01468372 C23.70531557 -0.00962971 27.16905842 -0.0143135 30.6328125 -0.01745605 C36.45021479 -0.02109746 42.26756634 -0.01629206 48.08496094 -0.0067749 C54.81624543 0.00411001 61.54740878 0.00058455 68.27869034 -0.01042771 C74.0519731 -0.01949566 79.82521934 -0.02078829 85.59850693 -0.01555037 C89.04929338 -0.01242795 92.50002284 -0.01202876 95.95080566 -0.01862335 C99.79635347 -0.02545866 103.64176493 -0.01599209 107.48730469 -0.00482178 C109.21104309 -0.01089447 109.21104309 -0.01089447 110.96960449 -0.01708984 C112.53442566 -0.00863037 112.53442566 -0.00863037 114.13085938 0 C115.04083679 0.00075405 115.95081421 0.0015081 116.8883667 0.002285 C119.06542969 0.25396729 119.06542969 0.25396729 121.06542969 2.25396729 C121.31990528 4.77181911 121.31990528 4.77181911 121.3261261 8.01701355 C121.33321091 9.24389389 121.34029572 10.47077423 121.34759521 11.73483276 C121.34530119 13.10180701 121.34279146 14.4687809 121.34008789 15.83575439 C121.34443315 17.26958991 121.34961568 18.7034231 121.35557556 20.13725281 C121.36899712 24.03806389 121.36954073 27.93877827 121.36701226 31.83960795 C121.36594464 35.09272819 121.37082056 38.3458287 121.37561768 41.59894472 C121.38672387 49.27197173 121.3871441 56.94494979 121.38110352 64.61798096 C121.37506214 72.54101557 121.38737628 80.46387268 121.40867358 88.386877 C121.4262711 95.18267322 121.43229386 101.97841284 121.42903584 108.77423102 C121.42721981 112.8359707 121.42989076 116.89758378 121.44375038 120.9593029 C121.45629409 124.7785026 121.45441773 128.59742499 121.44133949 132.41662025 C121.43896654 133.81990018 121.44173403 135.22319941 121.44996262 136.62645721 C121.46037015 138.53892537 121.45056035 140.45147201 121.43965149 142.36393738 C121.43981923 143.43522857 121.43998697 144.50651976 121.4401598 145.61027431 C121.06542969 148.25396729 121.06542969 148.25396729 119.86118126 150.09954643 C117.44699141 151.65153789 115.82362216 151.62335001 112.95918274 151.61473083 C111.90328949 151.61885483 110.84739624 151.62297882 109.75950623 151.62722778 C108.60144974 151.61644196 107.44339325 151.60565613 106.25024414 151.59454346 C104.42079254 151.59520058 104.42079254 151.59520058 102.55438232 151.59587097 C99.20940801 151.59413771 95.86498758 151.57908172 92.52011132 151.5581491 C89.02475122 151.53940869 85.52938392 151.53763395 82.03398132 151.53407288 C75.41476566 151.52474463 68.79569845 151.5001204 62.17654818 151.47002441 C54.64097185 151.43650458 47.10538846 151.42000049 39.56975615 151.4049381 C24.06822799 151.37357144 8.56684797 151.32079591 -6.93457031 151.25396729 C-6.98124012 131.86133217 -7.01653448 112.46870841 -7.03819466 93.07602882 C-7.04851806 84.07217154 -7.06259865 75.06834909 -7.08544922 66.06451416 C-7.1053506 58.21902741 -7.118279 50.37356588 -7.1227473 42.52805459 C-7.12536021 38.37187794 -7.13152363 34.21577348 -7.14603043 30.0596199 C-7.15956305 26.15105218 -7.16380177 22.24258666 -7.16078568 18.33399773 C-7.16133778 16.89643105 -7.16534091 15.4588611 -7.17298126 14.02131462 C-7.18287442 12.06459881 -7.17936099 10.10782867 -7.17507935 8.15109253 C-7.17692293 7.05415888 -7.17876652 5.95722523 -7.18066597 4.82705116 C-6.71803123 -0.01008408 -4.22772901 0.0035033 0 0 Z " fill="#050403" transform="translate(375.9345703125,241.74603271484375)"/>
<path d="M0 0 C82.17 0 164.34 0 249 0 C249 38.61 249 77.22 249 117 C241.74 117 234.48 117 227 117 C227 99.18 227 81.36 227 63 C231.455 62.505 231.455 62.505 236 62 C237.35618499 60.87465895 237.35618499 60.87465895 237.0625 57.9375 C237.0315625 56.4834375 237.0315625 56.4834375 237 55 C233.6964227 53.34821135 230.01443361 53.85969208 226.38293457 53.86628723 C225.02879039 53.8628889 225.02879039 53.8628889 223.64728975 53.85942191 C220.60403976 53.85306125 217.56083406 53.85391259 214.51757812 53.85473633 C212.34321535 53.85174616 210.16885311 53.84834396 207.99449158 53.84455872 C202.07524018 53.83570091 196.15600322 53.83337988 190.23674583 53.83274293 C185.30345585 53.83179544 180.37016927 53.82811907 175.43688059 53.82457083 C163.80378454 53.81641981 152.17069623 53.81398722 140.53759766 53.81469727 C128.51677124 53.81529851 116.49599588 53.80473883 104.47518015 53.7889536 C94.17115774 53.7759024 83.86715003 53.77051233 73.56311941 53.77115268 C67.40160645 53.77140834 61.24013331 53.76851953 55.07862854 53.75797462 C49.28717638 53.74833405 43.49580243 53.74818652 37.70434761 53.75549126 C35.57338409 53.75654209 33.44241579 53.75414491 31.31146049 53.7481308 C28.4132351 53.74047814 25.51528439 53.74501063 22.61706543 53.75276184 C21.76435578 53.74761828 20.91164613 53.74247471 20.03309679 53.73717529 C15.54308783 53.56970817 15.54308783 53.56970817 12 56 C11.7499227 58.54190002 11.7499227 58.54190002 12 61 C14.63523138 63.63523138 19.29171534 62.62917153 23 63 C23 80.82 23 98.64 23 117 C15.41 117 7.82 117 0 117 C0 78.39 0 39.78 0 0 Z " fill="#EFBF1F" transform="translate(110,276)"/>
<path d="M0 0 C0.74550613 0.00247742 1.49101227 0.00495483 2.2591095 0.00750732 C3.43737808 -0.00015907 3.43737808 -0.00015907 4.63945007 -0.00798035 C7.24394791 -0.02191502 9.84818227 -0.02091667 12.45271301 -0.01861572 C14.25870869 -0.0225006 16.06470345 -0.02683484 17.87069702 -0.03160095 C21.6595404 -0.03907155 25.44829061 -0.03876588 29.23713684 -0.0335083 C34.09760049 -0.02771332 38.95768313 -0.04464121 43.81808376 -0.06785297 C47.54895262 -0.08257009 51.27972929 -0.08346477 55.01062202 -0.08034325 C56.80281898 -0.0808575 58.59502096 -0.08611477 60.38718987 -0.09615517 C62.8916247 -0.10846295 65.39531204 -0.10176231 67.8997345 -0.09014893 C68.6432164 -0.09779266 69.3866983 -0.1054364 70.15270996 -0.11331177 C75.13765026 -0.06210066 75.13765026 -0.06210066 77.3354702 1.4318409 C79.2085676 4.08025013 79.01308149 6.03403499 79.00488281 9.26158142 C79.00900681 10.51100021 79.0131308 11.76041901 79.01737976 13.04769897 C79.00676232 14.43469453 78.99585789 15.82168792 78.98469543 17.2086792 C78.98384934 18.66723106 78.98432396 20.12578421 78.98602295 21.58433533 C78.98688503 25.54695277 78.96922509 29.50929876 78.94830108 33.47185302 C78.92956956 37.61184173 78.92778662 41.75183641 78.92422485 45.89186096 C78.914894 53.73291635 78.89026619 61.57384652 78.86017638 69.41484672 C78.8266647 78.34096822 78.81015451 87.26709564 78.79509008 96.19326437 C78.76371751 114.55630246 78.71093684 132.91922393 78.64411926 151.28216553 C67.87411693 151.35161013 57.10416768 151.40494859 46.33398724 151.43760204 C41.33319897 151.45327237 36.33256364 151.47453556 31.3318634 151.50848389 C26.50784612 151.54102861 21.68397613 151.55900824 16.85985756 151.56679726 C15.01740512 151.57234956 13.17496093 151.5831916 11.33257103 151.5993557 C8.75614742 151.62106518 6.18033609 151.6241352 3.60383606 151.6227417 C2.83851059 151.63352753 2.07318512 151.64431335 1.28466797 151.65542603 C-3.82162721 151.62544971 -3.82162721 151.62544971 -6.32733154 150.01541138 C-7.56830496 147.92420171 -7.7449587 146.63678379 -7.77238464 144.20965576 C-7.78895111 143.39548691 -7.80551758 142.58131805 -7.82258606 141.74247742 C-7.82583893 140.86741043 -7.8290918 139.99234344 -7.83244324 139.09075928 C-7.84802277 138.18970963 -7.86360229 137.28865997 -7.87965393 136.36030579 C-7.92721422 133.48010119 -7.95494999 130.60013927 -7.98088074 127.71966553 C-8.01735205 124.83579233 -8.05795674 121.95205721 -8.10353088 119.0683136 C-8.13078511 117.27326006 -8.15212439 115.47810534 -8.16706848 113.6829071 C-8.09061578 109.34585735 -8.09061578 109.34585735 -9.35588074 105.28216553 C-10.67588074 104.62216553 -11.99588074 103.96216553 -13.35588074 103.28216553 C-13.35588074 100.31216553 -13.35588074 97.34216553 -13.35588074 94.28216553 C-14.67588074 93.62216553 -15.99588074 92.96216553 -17.35588074 92.28216553 C-18.35588074 89.90716553 -18.35588074 89.90716553 -18.35588074 87.28216553 C-17.73713074 86.70466553 -17.11838074 86.12716553 -16.48088074 85.53216553 C-13.66306663 82.54859765 -13.91556602 80.38879015 -13.92228699 76.40325928 C-13.73537292 75.70329834 -13.54845886 75.0033374 -13.35588074 74.28216553 C-12.53214462 73.88042618 -11.70840851 73.47868683 -10.85971069 73.06477356 C-8.0499313 71.49030782 -8.0499313 71.49030782 -7.73010254 68.31535339 C-7.72947311 67.10227005 -7.72884369 65.88918671 -7.72819519 64.63934326 C-7.72092407 63.9691214 -7.71365295 63.29889954 -7.7061615 62.60836792 C-7.68756222 60.3936286 -7.70363538 58.18049945 -7.71916199 55.96575928 C-7.71112465 54.42782646 -7.70060816 52.88990477 -7.68771362 51.352005 C-7.6591378 47.30351525 -7.65859489 43.25553715 -7.66557312 39.20697021 C-7.67289198 32.72310085 -7.64164295 26.23939754 -7.60312462 19.75566292 C-7.59424763 17.48764033 -7.59958669 15.21997219 -7.60668945 12.95195007 C-7.60330611 11.56649681 -7.59955718 10.18104437 -7.59538269 8.79559326 C-7.59714005 7.58330551 -7.5988974 6.37101776 -7.60070801 5.12199402 C-7.15310457 -0.06989897 -4.62146066 0.04815305 0 0 Z " fill="#EBEBEB" transform="translate(22.355880737304688,241.71783447265625)"/>
<path d="M0 0 C8.58 0 17.16 0 26 0 C26.06058594 4.03089844 26.12117187 8.06179688 26.18359375 12.21484375 C26.23453058 15.42079431 26.28645203 18.62672554 26.33904266 21.83264923 C26.39435977 25.22132614 26.44792531 28.61001037 26.49731445 31.9987793 C26.55400946 35.88339427 26.61857585 39.76785878 26.68359375 43.65234375 C26.70866249 45.48199928 26.70866249 45.48199928 26.73423767 47.34861755 C26.75418289 48.46970413 26.77412811 49.59079071 26.79467773 50.74584961 C26.81022202 51.73846298 26.8257663 52.73107635 26.84178162 53.75376892 C26.75118444 55.96974297 26.75118444 55.96974297 28 57 C30.31 57 32.62 57 35 57 C35.33 38.19 35.66 19.38 36 0 C39.3 0 42.6 0 46 0 C46.04668826 17.81075902 46.08197325 35.62150219 46.10362434 53.43230915 C46.11394382 61.70188249 46.12801695 69.97141784 46.15087891 78.2409668 C46.17079227 85.44738467 46.18371155 92.65377504 46.18817699 99.86021966 C46.19078786 103.67717053 46.19693841 107.49404271 46.21146011 111.3109684 C46.22501162 114.90190139 46.2292276 118.49272307 46.22621536 122.0836792 C46.22702992 124.03331418 46.23780427 125.98293698 46.24884033 127.93254089 C46.246091 129.08940399 46.24334167 130.24626709 46.24050903 131.43818665 C46.24235262 132.44570638 46.24419621 133.45322611 46.24609566 134.49127674 C46 137 46 137 44 140 C41.56326857 140.29922203 39.3789519 140.40017399 36.93945312 140.3742218 C36.20411598 140.37819621 35.46877884 140.38217061 34.71115875 140.38626546 C32.23432888 140.39592997 29.75806432 140.38404571 27.28125 140.37231445 C25.51082139 140.37474106 23.74039415 140.37845909 21.9699707 140.38337708 C17.15185397 140.39280775 12.3339396 140.38334243 7.51583862 140.37004495 C2.48256385 140.3587567 -2.55070058 140.36283592 -7.58398438 140.36479187 C-16.03779419 140.36567568 -24.49152395 140.35457631 -32.9453125 140.33618164 C-42.73035682 140.31501269 -52.5152838 140.31150362 -62.30034637 140.3177436 C-71.69870051 140.32343098 -81.09701317 140.31779899 -90.49536133 140.30657005 C-94.50171676 140.30191576 -98.50804689 140.30105379 -102.5144043 140.3031559 C-107.22902253 140.30503444 -111.94352071 140.29696848 -116.65811157 140.2810955 C-118.3923798 140.27683953 -120.12666017 140.27601086 -121.8609314 140.27878571 C-124.22057202 140.28198934 -126.57984983 140.2729721 -128.93945312 140.26069641 C-129.6326339 140.26447573 -130.32581467 140.26825506 -131.04000092 140.27214891 C-135.77167099 140.22832901 -135.77167099 140.22832901 -138 138 C-138.24609566 135.61432457 -138.24609566 135.61432457 -138.24050903 132.55844116 C-138.24463303 130.82520851 -138.24463303 130.82520851 -138.24884033 129.05696106 C-138.24164978 127.78310043 -138.23445923 126.50923981 -138.22705078 125.19677734 C-138.22648686 123.84674589 -138.22680286 122.49671383 -138.22793579 121.14668274 C-138.22851105 117.47537724 -138.21672892 113.80420169 -138.20278788 110.13292646 C-138.1903092 106.29855471 -138.18911228 102.46418018 -138.18673706 98.62979126 C-138.18051385 91.36601415 -138.1640917 84.10229705 -138.14403808 76.8385464 C-138.1217052 68.57022562 -138.11069223 60.30190202 -138.10064721 52.03355861 C-138.07972617 35.02233766 -138.0445339 18.01117517 -138 1 C-135.03 1 -132.06 1 -129 1 C-128.99668985 1.64752668 -128.99337971 2.29505337 -128.98996925 2.96220207 C-128.90882634 18.70203517 -128.81676279 34.44176049 -128.71247292 50.18145561 C-128.66230423 57.79298763 -128.61586192 65.40450864 -128.578125 73.01611328 C-128.54523253 79.6486915 -128.50541674 86.2811854 -128.45720994 92.91367066 C-128.43191746 96.42706142 -128.41014446 99.94039605 -128.39665604 103.45385361 C-128.38148633 107.37151847 -128.35086282 111.28897767 -128.31884766 115.20654297 C-128.31668747 116.37754547 -128.31452728 117.54854797 -128.31230164 118.7550354 C-128.30113815 119.81796814 -128.28997467 120.88090088 -128.2784729 121.9760437 C-128.27294214 122.90336744 -128.26741138 123.83069118 -128.26171303 124.78611565 C-128.20738404 127.20541929 -128.20738404 127.20541929 -126 129 C-123.1218394 129.29994478 -123.1218394 129.29994478 -119.68527222 129.24050903 C-119.03019499 129.24221788 -118.37511776 129.24392673 -117.70018971 129.24568737 C-115.49516652 129.24899355 -113.29044459 129.23796033 -111.08544922 129.22705078 C-109.50881965 129.22648691 -107.93218956 129.22680276 -106.3555603 129.22793579 C-102.06651364 129.22851125 -97.7775781 129.21672587 -93.48855734 129.20278788 C-89.00955864 129.19031253 -84.53055758 129.18911255 -80.05154419 129.18673706 C-71.56592037 129.18051287 -63.08034789 129.16408939 -54.59474671 129.14403808 C-44.93588284 129.12170825 -35.27701655 129.110693 -25.61813331 129.10064721 C-5.74539352 129.07972395 14.12730001 129.04452977 34 129 C35.58157077 125.83685847 35.1418935 122.43710457 35.1328125 118.96484375 C35.13376923 118.1709877 35.13472595 117.37713165 35.13571167 116.55921936 C35.13639251 114.88054322 35.1345449 113.20186445 35.13037109 111.52319336 C35.12501441 108.94443903 35.13032292 106.36585832 35.13671875 103.78710938 C35.13605809 102.15885378 35.13477718 100.53059829 35.1328125 98.90234375 C35.13584885 97.73831276 35.13584885 97.73831276 35.13894653 96.55076599 C35.45605989 92.97991173 35.45605989 92.97991173 34 90 C31 89.83333333 31 89.83333333 28 90 C20.91323612 97.08676388 26.34538774 109.98375561 26 120 C3.89 120 -18.22 120 -41 120 C-41 93.93 -41 67.86 -41 41 C-38.03 40.34 -35.06 39.68 -32 39 C-20.94895305 35.29949721 -10.87439848 27.44473024 -5.45703125 17.03515625 C-3.01879937 11.36501584 -1.51331159 6.05324637 0 0 Z " fill="#FB5C3C" transform="translate(281,339)"/>
<path d="M0 0 C1.04321411 -0.00563965 2.08642822 -0.0112793 3.16125488 -0.01708984 C4.31041382 -0.01304138 5.45957275 -0.00899292 6.64355469 -0.00482178 C7.8500769 -0.00832642 9.05659912 -0.01183105 10.29968262 -0.01544189 C13.61372989 -0.02275082 16.9275284 -0.02101698 20.24156189 -0.01468372 C23.70531557 -0.00962971 27.16905842 -0.0143135 30.6328125 -0.01745605 C36.45021479 -0.02109746 42.26756634 -0.01629206 48.08496094 -0.0067749 C54.81624543 0.00411001 61.54740878 0.00058455 68.27869034 -0.01042771 C74.0519731 -0.01949566 79.82521934 -0.02078829 85.59850693 -0.01555037 C89.04929338 -0.01242795 92.50002284 -0.01202876 95.95080566 -0.01862335 C99.79635347 -0.02545866 103.64176493 -0.01599209 107.48730469 -0.00482178 C109.21104309 -0.01089447 109.21104309 -0.01089447 110.96960449 -0.01708984 C112.53442566 -0.00863037 112.53442566 -0.00863037 114.13085938 0 C115.04083679 0.00075405 115.95081421 0.0015081 116.8883667 0.002285 C119.06542969 0.25396729 119.06542969 0.25396729 121.06542969 2.25396729 C121.31990528 4.77181911 121.31990528 4.77181911 121.3261261 8.01701355 C121.33321091 9.24389389 121.34029572 10.47077423 121.34759521 11.73483276 C121.34530119 13.10180701 121.34279146 14.4687809 121.34008789 15.83575439 C121.34443315 17.26958991 121.34961568 18.7034231 121.35557556 20.13725281 C121.36899712 24.03806389 121.36954073 27.93877827 121.36701226 31.83960795 C121.36594464 35.09272819 121.37082056 38.3458287 121.37561768 41.59894472 C121.38672387 49.27197173 121.3871441 56.94494979 121.38110352 64.61798096 C121.37506214 72.54101557 121.38737628 80.46387268 121.40867358 88.386877 C121.4262711 95.18267322 121.43229386 101.97841284 121.42903584 108.77423102 C121.42721981 112.8359707 121.42989076 116.89758378 121.44375038 120.9593029 C121.45629409 124.7785026 121.45441773 128.59742499 121.44133949 132.41662025 C121.43896654 133.81990018 121.44173403 135.22319941 121.44996262 136.62645721 C121.46037015 138.53892537 121.45056035 140.45147201 121.43965149 142.36393738 C121.43981923 143.43522857 121.43998697 144.50651976 121.4401598 145.61027431 C121.06542969 148.25396729 121.06542969 148.25396729 119.86118126 150.09954643 C117.44699141 151.65153789 115.82362216 151.62335001 112.95918274 151.61473083 C111.90328949 151.61885483 110.84739624 151.62297882 109.75950623 151.62722778 C108.60144974 151.61644196 107.44339325 151.60565613 106.25024414 151.59454346 C104.42079254 151.59520058 104.42079254 151.59520058 102.55438232 151.59587097 C99.20940801 151.59413771 95.86498758 151.57908172 92.52011132 151.5581491 C89.02475122 151.53940869 85.52938392 151.53763395 82.03398132 151.53407288 C75.41476566 151.52474463 68.79569845 151.5001204 62.17654818 151.47002441 C54.64097185 151.43650458 47.10538846 151.42000049 39.56975615 151.4049381 C24.06822799 151.37357144 8.56684797 151.32079591 -6.93457031 151.25396729 C-6.98124012 131.86133217 -7.01653448 112.46870841 -7.03819466 93.07602882 C-7.04851806 84.07217154 -7.06259865 75.06834909 -7.08544922 66.06451416 C-7.1053506 58.21902741 -7.118279 50.37356588 -7.1227473 42.52805459 C-7.12536021 38.37187794 -7.13152363 34.21577348 -7.14603043 30.0596199 C-7.15956305 26.15105218 -7.16380177 22.24258666 -7.16078568 18.33399773 C-7.16133778 16.89643105 -7.16534091 15.4588611 -7.17298126 14.02131462 C-7.18287442 12.06459881 -7.17936099 10.10782867 -7.17507935 8.15109253 C-7.17692293 7.05415888 -7.17876652 5.95722523 -7.18066597 4.82705116 C-6.71803123 -0.01008408 -4.22772901 0.0035033 0 0 Z M9.06542969 24.25396729 C6.41089429 28.23577038 6.77774238 31.70474885 6.79077148 36.32769775 C6.78566055 37.25644714 6.78054962 38.18519653 6.77528381 39.14208984 C6.76136078 42.21851002 6.76234678 45.29470681 6.76464844 48.37115479 C6.76076268 50.50723352 6.75642827 52.64331148 6.75166321 54.77938843 C6.74419493 59.26003522 6.74449646 63.74060323 6.74975586 68.22125244 C6.75554789 73.96369694 6.73862872 79.70581863 6.71541119 85.44820976 C6.7006793 89.86113369 6.69980147 94.27397982 6.70292091 98.68692398 C6.70240732 100.80402388 6.6971624 102.9211281 6.68710899 105.03820419 C6.67477418 107.99949859 6.68151898 110.96016345 6.69311523 113.92144775 C6.6854715 114.79642914 6.67782776 115.67141052 6.66995239 116.57290649 C6.71071067 121.28132136 6.96952734 124.45584035 10.06542969 128.25396729 C13.86427688 130.78653208 16.91142138 130.54234405 21.31298828 130.52862549 C22.15395554 130.53373642 22.99492279 130.53884735 23.8613739 130.54411316 C26.64561043 130.5580303 29.42959997 130.55705062 32.21386719 130.55474854 C34.14816378 130.55863467 36.08245952 130.56296917 38.01675415 130.56773376 C42.07369755 130.57520081 46.13055394 130.57490146 50.1875 130.56964111 C55.38515024 130.5638498 60.58244375 130.58076698 65.78003502 130.60398579 C69.77605267 130.61872289 73.77198444 130.61959479 77.76802444 130.61647606 C79.68416678 130.61698941 81.6003139 130.6222298 83.5164299 130.63228798 C86.19754903 130.64463279 88.8779739 130.63787221 91.55908203 130.62628174 C92.34990677 130.63392548 93.14073151 130.64156921 93.95552063 130.64944458 C98.50408813 130.60601086 101.47207948 130.11070558 105.06542969 127.25396729 C107.08683521 124.221859 107.31672398 123.64249147 107.33285522 120.24435425 C107.34138519 119.43128311 107.34991516 118.61821198 107.35870361 117.78050232 C107.35779724 116.89212173 107.35689087 116.00374115 107.35595703 115.08843994 C107.36267426 114.14993698 107.36939148 113.21143402 107.37631226 112.24449158 C107.3953422 109.13561743 107.39921901 106.02695859 107.40136719 102.91802979 C107.40779174 100.75953074 107.41451984 98.60103259 107.42153931 96.4425354 C107.43352465 91.91481507 107.43721885 87.38717111 107.43603516 82.85943604 C107.43583192 77.05638093 107.46313343 71.25381531 107.49757957 65.45087624 C107.51981266 60.99162546 107.52387379 56.53249313 107.5228157 52.0731926 C107.5251771 49.93375334 107.53403081 47.79431108 107.54948044 45.6549263 C107.56906701 42.66236311 107.5633309 39.67086386 107.55126953 36.67828369 C107.56250854 35.79395157 107.57374756 34.90961945 107.58532715 33.99848938 C107.54422576 29.98725515 107.38884549 27.7924023 105.2850647 24.28994751 C100.73324184 20.11474696 97.04171664 19.95624505 90.99560547 19.96343994 C90.18535919 19.95672272 89.37511292 19.95000549 88.54031372 19.94308472 C85.86372737 19.92409824 83.18739168 19.9201802 80.51074219 19.91802979 C78.6475311 19.9116023 76.78432103 19.90487397 74.92111206 19.89785767 C71.01558085 19.88588328 67.11013811 19.88217701 63.20458984 19.88336182 C58.20538861 19.88356501 53.20675582 19.85626308 48.20768929 19.8218174 C44.35917568 19.79955613 40.51079903 19.79552404 36.66222763 19.79658127 C34.81946733 19.79422414 32.97670331 19.7853943 31.1340065 19.76991653 C28.55361626 19.75027203 25.9744539 19.7560881 23.39404297 19.76812744 C22.25763367 19.75126892 22.25763367 19.75126892 21.0982666 19.73406982 C15.94638681 19.79500549 13.01793754 20.98031839 9.06542969 24.25396729 Z " fill="#EBEBEB" transform="translate(375.9345703125,241.74603271484375)"/>
<path d="M0 0 C22.44 0 44.88 0 68 0 C68 39.93 68 79.86 68 121 C56.965625 121.020625 45.93125 121.04125 34.5625 121.0625 C31.07373291 121.071604 27.58496582 121.08070801 23.99047852 121.09008789 C21.24495482 121.09300673 18.49943069 121.09555536 15.75390625 121.09765625 C15.0358934 121.10026962 14.31788055 121.102883 13.57810974 121.10557556 C11.47335481 121.11285571 9.36868158 121.11390733 7.26391602 121.11352539 C6.07588882 121.115746 4.88786163 121.11796661 3.66383362 121.12025452 C1 121 1 121 0 120 C-0.09588124 118.44379604 -0.12188033 116.88323546 -0.12025452 115.32408142 C-0.12162918 114.31300827 -0.12300385 113.30193512 -0.12442017 112.26022339 C-0.12082489 111.14173004 -0.11722961 110.02323669 -0.11352539 108.87084961 C-0.11367142 107.70027512 -0.11381744 106.52970062 -0.1139679 105.32365417 C-0.11338895 102.10479057 -0.10835991 98.88596996 -0.10139394 95.66711497 C-0.09515957 92.306526 -0.09455654 88.94593627 -0.09336853 85.58534241 C-0.09025546 79.21757658 -0.0820424 72.84982784 -0.07201904 66.48206955 C-0.05976303 58.52385694 -0.05427525 50.56564157 -0.04882812 42.60742188 C-0.03907697 28.40493459 -0.01904669 14.20248462 0 0 Z " fill="#71C1E8" transform="translate(162,339)"/>
<path d="M0 0 C3.3 0 6.6 0 10 0 C10.04668826 17.81075902 10.08197325 35.62150219 10.10362434 53.43230915 C10.11394382 61.70188249 10.12801695 69.97141784 10.15087891 78.2409668 C10.17079227 85.44738467 10.18371155 92.65377504 10.18817699 99.86021966 C10.19078786 103.67717053 10.19693841 107.49404271 10.21146011 111.3109684 C10.22501162 114.90190139 10.2292276 118.49272307 10.22621536 122.0836792 C10.22702992 124.03331418 10.23780427 125.98293698 10.24884033 127.93254089 C10.246091 129.08940399 10.24334167 130.24626709 10.24050903 131.43818665 C10.24235262 132.44570638 10.24419621 133.45322611 10.24609566 134.49127674 C10 137 10 137 8 140 C5.56326857 140.29922203 3.3789519 140.40017399 0.93945312 140.3742218 C0.20411598 140.37819621 -0.53122116 140.38217061 -1.28884125 140.38626546 C-3.76567112 140.39592997 -6.24193568 140.38404571 -8.71875 140.37231445 C-10.48917861 140.37474106 -12.25960585 140.37845909 -14.0300293 140.38337708 C-18.84814603 140.39280775 -23.6660604 140.38334243 -28.48416138 140.37004495 C-33.51743615 140.3587567 -38.55070058 140.36283592 -43.58398438 140.36479187 C-52.03779419 140.36567568 -60.49152395 140.35457631 -68.9453125 140.33618164 C-78.73035682 140.31501269 -88.5152838 140.31150362 -98.30034637 140.3177436 C-107.69870051 140.32343098 -117.09701317 140.31779899 -126.49536133 140.30657005 C-130.50171676 140.30191576 -134.50804689 140.30105379 -138.5144043 140.3031559 C-143.22902253 140.30503444 -147.94352071 140.29696848 -152.65811157 140.2810955 C-154.3923798 140.27683953 -156.12666017 140.27601086 -157.8609314 140.27878571 C-160.22057202 140.28198934 -162.57984983 140.2729721 -164.93945312 140.26069641 C-165.6326339 140.26447573 -166.32581467 140.26825506 -167.04000092 140.27214891 C-171.77167099 140.22832901 -171.77167099 140.22832901 -174 138 C-174.24609566 135.61432457 -174.24609566 135.61432457 -174.24050903 132.55844116 C-174.24463303 130.82520851 -174.24463303 130.82520851 -174.24884033 129.05696106 C-174.24164978 127.78310043 -174.23445923 126.50923981 -174.22705078 125.19677734 C-174.22648686 123.84674589 -174.22680286 122.49671383 -174.22793579 121.14668274 C-174.22851105 117.47537724 -174.21672892 113.80420169 -174.20278788 110.13292646 C-174.1903092 106.29855471 -174.18911228 102.46418018 -174.18673706 98.62979126 C-174.18051385 91.36601415 -174.1640917 84.10229705 -174.14403808 76.8385464 C-174.1217052 68.57022562 -174.11069223 60.30190202 -174.10064721 52.03355861 C-174.07972617 35.02233766 -174.0445339 18.01117517 -174 1 C-171.03 1 -168.06 1 -165 1 C-164.99668985 1.64752668 -164.99337971 2.29505337 -164.98996925 2.96220207 C-164.90882634 18.70203517 -164.81676279 34.44176049 -164.71247292 50.18145561 C-164.66230423 57.79298763 -164.61586192 65.40450864 -164.578125 73.01611328 C-164.54523253 79.6486915 -164.50541674 86.2811854 -164.45720994 92.91367066 C-164.43191746 96.42706142 -164.41014446 99.94039605 -164.39665604 103.45385361 C-164.38148633 107.37151847 -164.35086282 111.28897767 -164.31884766 115.20654297 C-164.31668747 116.37754547 -164.31452728 117.54854797 -164.31230164 118.7550354 C-164.30113815 119.81796814 -164.28997467 120.88090088 -164.2784729 121.9760437 C-164.27294214 122.90336744 -164.26741138 123.83069118 -164.26171303 124.78611565 C-164.20738404 127.20541929 -164.20738404 127.20541929 -162 129 C-159.1218394 129.29994478 -159.1218394 129.29994478 -155.68527222 129.24050903 C-155.03019499 129.24221788 -154.37511776 129.24392673 -153.70018971 129.24568737 C-151.49516652 129.24899355 -149.29044459 129.23796033 -147.08544922 129.22705078 C-145.50881965 129.22648691 -143.93218956 129.22680276 -142.3555603 129.22793579 C-138.06651364 129.22851125 -133.7775781 129.21672587 -129.48855734 129.20278788 C-125.00955864 129.19031253 -120.53055758 129.18911255 -116.05154419 129.18673706 C-107.56592037 129.18051287 -99.08034789 129.16408939 -90.59474671 129.14403808 C-80.93588284 129.12170825 -71.27701655 129.110693 -61.61813331 129.10064721 C-41.74539352 129.07972395 -21.87269999 129.04452977 -2 129 C-0.42881498 125.85762995 -0.7949347 122.48728255 -0.76171875 119.03515625 C-0.74961113 117.8514872 -0.74961113 117.8514872 -0.73725891 116.64390564 C-0.72342253 114.97364498 -0.71269837 113.3033561 -0.70483398 111.63305664 C-0.68758964 109.07579327 -0.64369848 106.51981246 -0.59960938 103.96289062 C-0.58948511 102.34115535 -0.58096817 100.71940908 -0.57421875 99.09765625 C-0.54795662 97.94910912 -0.54795662 97.94910912 -0.52116394 96.77735901 C-0.48600462 94.36383391 -0.48600462 94.36383391 -1 91 C-2.89027444 89.11474089 -2.89027444 89.11474089 -5 88 C-5.390625 85.51953125 -5.390625 85.51953125 -5.25 82.8125 C-5.21390625 81.91144531 -5.1778125 81.01039063 -5.140625 80.08203125 C-5.09421875 79.39496094 -5.0478125 78.70789063 -5 78 C-3.68 77.67 -2.36 77.34 -1 77 C-0.66602213 74.12586875 -0.66602213 74.12586875 -1 71 C-1.99 70.319375 -1.99 70.319375 -3 69.625 C-5 68 -5 68 -5.390625 65.51953125 C-5.34421875 64.62621094 -5.2978125 63.73289062 -5.25 62.8125 C-5.21390625 61.91144531 -5.1778125 61.01039063 -5.140625 60.08203125 C-5.09421875 59.39496094 -5.0478125 58.70789063 -5 58 C-3.68 57.67 -2.36 57.34 -1 57 C-0.67 38.19 -0.34 19.38 0 0 Z " fill="#EBEBEB" transform="translate(317,339)"/>
<path d="M0 0 C1.02867188 -0.02449219 2.05734375 -0.04898437 3.1171875 -0.07421875 C10.20831856 -0.10163292 14.04099971 0.90352756 19.2535553 5.9524231 C21.35061944 9.65676433 21.05109933 13.1746797 21.02905273 17.36279297 C21.03591599 18.27057495 21.04277924 19.17835693 21.04985046 20.11364746 C21.06815382 23.11498654 21.06427543 26.11580457 21.05859375 29.1171875 C21.06315431 31.20460175 21.0684595 33.29201449 21.07447815 35.37942505 C21.08341655 39.75577897 21.08097831 44.1319505 21.07104492 48.50830078 C21.05956269 54.1128471 21.07975186 59.71676268 21.10896206 65.32122612 C21.12732246 69.63298536 21.12703175 73.94459347 21.12132454 78.25638199 C21.12117126 80.3224183 21.12722095 82.38846482 21.13961601 84.45446396 C21.15451845 87.34618222 21.14385366 90.23673578 21.12670898 93.12841797 C21.13637695 93.97953156 21.14604492 94.83064514 21.15600586 95.70755005 C21.08958749 101.06604632 20.17179398 104.11353957 16.625 108.375 C11.84533292 111.80978477 5.31207917 110.78494354 -0.3125 110.8125 C-1.49263672 110.84537109 -2.67277344 110.87824219 -3.88867188 110.91210938 C-12.36691668 110.96488849 -12.36691668 110.96488849 -15.27001953 109.26611328 C-16.62890625 107.91015625 -16.62890625 107.91015625 -18.375 105.375 C-18.705 105.045 -19.035 104.715 -19.375 104.375 C-19.49162281 101.38824701 -19.54303126 98.4243197 -19.55200195 95.43652344 C-19.55857315 94.49831253 -19.56514435 93.56010162 -19.57191467 92.59346008 C-19.59170217 89.47376434 -19.60332299 86.35411688 -19.61328125 83.234375 C-19.61735678 82.17137428 -19.6214323 81.10837357 -19.62563133 80.01316071 C-19.64651637 74.38589164 -19.66080694 68.75864714 -19.67016602 63.13134766 C-19.68122929 57.31257027 -19.71562155 51.49417544 -19.75533772 45.67553329 C-19.78146232 41.20771566 -19.78985422 36.73998966 -19.79344749 32.27210236 C-19.79832502 30.12707183 -19.80997198 27.98204571 -19.82848549 25.83708954 C-19.85278587 22.83476859 -19.85192827 19.8334435 -19.8449707 16.83105469 C-19.85778076 15.94358047 -19.87059082 15.05610626 -19.88378906 14.14173889 C-19.84895049 10.01959589 -19.7224101 7.9227981 -17.46589661 4.36471558 C-12.2182354 -0.62900492 -6.91313798 0.00859843 0 0 Z " fill="#040404" transform="translate(57.375,261.625)"/>
<path d="M0 0 C1.78065479 -0.00782324 1.78065479 -0.00782324 3.59728241 -0.01580453 C4.91301491 -0.01134309 6.22874741 -0.00688164 7.58435059 -0.002285 C8.98708509 -0.00458743 10.38981838 -0.00776248 11.79254913 -0.01173949 C15.66073683 -0.02012619 19.52882646 -0.01594476 23.39701462 -0.00976706 C27.5633894 -0.00525932 31.72974679 -0.01221794 35.89611816 -0.0177269 C44.06340056 -0.02664057 52.23064629 -0.02469013 60.39793015 -0.01890162 C67.03307141 -0.01439287 73.66820237 -0.0137688 80.30334473 -0.01594925 C81.24611912 -0.01625572 82.18889352 -0.01656218 83.16023684 -0.01687793 C85.07520231 -0.01751736 86.99016778 -0.01816578 88.90513325 -0.01882312 C106.88026169 -0.02453219 124.85536977 -0.01795948 142.83049488 -0.00722238 C158.26863928 0.00171365 173.70675361 0.00016177 189.14489746 -0.00905991 C207.05378464 -0.01975236 224.96265396 -0.02398282 242.87154388 -0.01783538 C244.77963765 -0.01719825 246.68773142 -0.01656951 248.5958252 -0.01594925 C250.00421433 -0.01548642 250.00421433 -0.01548642 251.44105577 -0.01501425 C258.07158873 -0.01328422 264.70211039 -0.01620901 271.3326416 -0.02090836 C279.4082214 -0.02650582 287.4837623 -0.02502474 295.55933762 -0.01434687 C299.68306368 -0.0090748 303.80672479 -0.00705936 307.93045044 -0.01364517 C311.70044923 -0.01957519 315.47032243 -0.01637872 319.24030972 -0.00569007 C321.26083574 -0.00237361 323.28137038 -0.00895327 325.30188751 -0.01580453 C326.48899071 -0.01058903 327.6760939 -0.00537354 328.89916992 0 C330.44566349 0.00048706 330.44566349 0.00048706 332.02339935 0.00098395 C334.44958496 0.25168228 334.44958496 0.25168228 336.44958496 2.25168228 C336.76208496 5.25168228 336.76208496 5.25168228 336.44958496 8.25168228 C333.02989347 10.53147661 331.82747574 10.50209069 327.81015015 10.50336456 C326.62863939 10.50858006 325.44712864 10.51379555 324.22981453 10.51916909 C322.92545889 10.51470765 321.62110325 10.51024621 320.27722168 10.50564957 C318.88258641 10.50795271 317.48795235 10.51112825 316.09332085 10.51510406 C312.25212597 10.52348085 308.41103002 10.51931376 304.56983471 10.51313162 C300.43072515 10.50861988 296.291633 10.51558451 292.15252686 10.52109146 C284.04052553 10.53000082 275.92856115 10.5280566 267.81655836 10.52226618 C261.22578598 10.51775575 254.63502397 10.5171341 248.04425049 10.51931381 C247.10745103 10.51962028 246.17065157 10.51992674 245.20546424 10.5202425 C243.30258004 10.52088193 241.39969583 10.52153035 239.49681163 10.52218768 C221.63896409 10.52789549 203.78113705 10.52132602 185.92329288 10.51058695 C170.58894767 10.50165103 155.25463274 10.50320294 139.92028809 10.51242447 C122.12784641 10.52311914 104.33542273 10.52734613 86.54297829 10.52119994 C84.64695867 10.52056282 82.75093905 10.51993408 80.85491943 10.51931381 C79.45547618 10.51885099 79.45547618 10.51885099 78.02776134 10.51837881 C71.44227027 10.51664946 64.85679058 10.51957214 58.27130127 10.52427292 C50.24957298 10.52987285 42.22788385 10.52838407 34.20616007 10.51771143 C30.11065674 10.51244271 26.01521878 10.5104183 21.91971588 10.51700974 C18.17437672 10.52294659 14.42916384 10.51973179 10.68383622 10.50905463 C8.67900918 10.5057438 6.67417344 10.51231177 4.66935539 10.51916909 C3.48784464 10.5139536 2.30633389 10.5087381 1.08901978 10.50336456 C0.06502138 10.50303986 -0.95897701 10.50271515 -2.01400566 10.50238061 C-4.55041504 10.25168228 -4.55041504 10.25168228 -7.55041504 8.25168228 C-7.86291504 5.25168228 -7.86291504 5.25168228 -7.55041504 2.25168228 C-4.901221 -0.39751175 -3.69955226 0.00116515 0 0 Z " fill="#C1E3FD" transform="translate(103.5504150390625,200.74831771850586)"/>
<path d="M0 0 C0.33 0 0.66 0 1 0 C1 9.9 1 19.8 1 30 C-3.36049561 30.02187378 -3.36049561 30.02187378 -7.80908203 30.04418945 C-17.41643356 30.09453831 -27.02362305 30.16113406 -36.63081551 30.23571491 C-42.45536031 30.28043223 -48.27983495 30.31968556 -54.10449219 30.34643555 C-59.72616769 30.37245464 -65.34757337 30.41284765 -70.96908188 30.46318626 C-73.11322548 30.47986432 -75.25741576 30.49137274 -77.40161514 30.49761391 C-80.40621441 30.50724456 -83.41012189 30.53529224 -86.41455078 30.56762695 C-87.30000076 30.56619186 -88.18545074 30.56475677 -89.09773254 30.5632782 C-94.10549665 30.63943842 -97.76358405 31.04675013 -102 34 C-108.1706923 42.13028048 -108.1706923 42.13028048 -107 64 C-189.17 64 -271.34 64 -356 64 C-356.495 51.625 -356.495 51.625 -357 39 C-360.33232953 33.31600899 -360.33232953 33.31600899 -366 31 C-370.35087393 30.54310342 -374.68258041 30.51125918 -379.0546875 30.48828125 C-380.31137238 30.47033005 -381.56805725 30.45237885 -382.86282349 30.43388367 C-386.18695624 30.38899089 -389.51072339 30.3566396 -392.83502197 30.33044434 C-396.2338983 30.30054667 -399.63254872 30.25420737 -403.03125 30.20898438 C-409.6875169 30.12161579 -416.3432433 30.06151878 -423 30 C-423 20.43 -423 10.86 -423 1 C-422.67 1 -422.34 1 -422 1 C-422 7.6 -422 14.2 -422 21 C-420.31519531 20.98428955 -418.63039063 20.9685791 -416.89453125 20.95239258 C-411.30268432 20.90384663 -405.71086784 20.86946865 -400.11886597 20.84456348 C-396.73130428 20.8289654 -393.34397242 20.80783594 -389.95654297 20.77368164 C-386.05430097 20.73716525 -382.15238209 20.7202425 -378.25 20.70703125 C-377.04448486 20.69154739 -375.83896973 20.67606354 -374.59692383 20.66011047 C-367.12732849 20.65862653 -361.01063453 21.06833263 -354.79296875 25.61328125 C-354.26316406 26.17402344 -353.73335938 26.73476562 -353.1875 27.3125 C-352.64480469 27.86550781 -352.10210937 28.41851562 -351.54296875 28.98828125 C-343.13165909 39.95492549 -347 46.5543698 -347 63 C-270.77 63 -194.54 63 -116 63 C-116 55.41 -116 47.82 -116 40 C-112.22450082 30.56125206 -110.37186413 27.32850735 -102.48703003 22.44291687 C-97.93116921 20.55772277 -94.10944264 20.60122727 -89.23095703 20.65942383 C-88.26447739 20.65898575 -87.29799774 20.65854767 -86.30223083 20.65809631 C-83.12054968 20.66017959 -79.93940115 20.68348926 -76.7578125 20.70703125 C-74.54678638 20.71262883 -72.33575652 20.71689817 -70.12472534 20.71989441 C-64.31483629 20.73133033 -58.50517343 20.76078697 -52.69537354 20.79400635 C-46.76309265 20.8247341 -40.83077509 20.83840554 -34.8984375 20.85351562 C-23.26550981 20.88565772 -11.63280913 20.93841565 0 21 C0 14.07 0 7.14 0 0 Z " fill="#4594B4" transform="translate(466,202)"/>
<path d="M0 0 C82.17 0 164.34 0 249 0 C249 38.61 249 77.22 249 117 C248.67 117 248.34 117 248 117 C248 81.03 248 45.06 248 8 C166.49 8 84.98 8 1 8 C1 43.97 1 79.94 1 117 C0.67 117 0.34 117 0 117 C0 78.39 0 39.78 0 0 Z " fill="#E0A11D" transform="translate(110,276)"/>
<path d="M0 0 C0.33 0 0.66 0 1 0 C1 44.88 1 89.76 1 136 C61.72 136 122.44 136 185 136 C185 138.97 185 141.94 185 145 C161.9 145.33 138.8 145.66 115 146 C114.34 147.65 113.68 149.3 113 151 C112.30132812 150.96519531 111.60265625 150.93039063 110.8828125 150.89453125 C109.97273438 150.86746094 109.06265625 150.84039062 108.125 150.8125 C107.22007812 150.77769531 106.31515625 150.74289063 105.3828125 150.70703125 C104.59648437 150.80371094 103.81015625 150.90039062 103 151 C102.34 151.99 101.68 152.98 101 154 C97.5 154.375 97.5 154.375 94 154 C93.34 153.01 92.68 152.02 92 151 C89.56306689 150.63583953 89.56306689 150.63583953 86.875 150.8125 C85.96492188 150.83957031 85.05484375 150.86664063 84.1171875 150.89453125 C83.41851562 150.92933594 82.71984375 150.96414062 82 151 C81.01 148.525 81.01 148.525 80 146 C40.4 145.505 40.4 145.505 0 145 C0 97.15 0 49.3 0 0 Z " fill="#A3A4A4" transform="translate(142,36)"/>
<path d="M0 0 C3.625 0.3125 3.625 0.3125 5.234375 1.99609375 C6.74679156 4.5153719 7.61405204 6.88853165 8.5 9.6875 C11.05229993 16.84917742 14.04140434 20.68873324 20.875 24.125 C21.74640625 24.52332031 22.6178125 24.92164062 23.515625 25.33203125 C25.625 26.3125 25.625 26.3125 26.625 27.3125 C27.09442651 32.71090486 27.09442651 32.71090486 25.41796875 34.859375 C23.29736907 36.57803095 21.17685518 37.57196941 18.6875 38.6875 C13.29703575 41.35534951 10.68871803 43.44775758 8.54296875 49.2265625 C7.82085576 51.36483348 7.12430552 53.51195506 6.45703125 55.66796875 C5.625 58.3125 5.625 58.3125 4.625 60.3125 C-0.49297696 61.79102668 -0.49297696 61.79102668 -3.44140625 60.19140625 C-5.91579153 57.78700358 -6.52265585 55.73090341 -7.5 52.4375 C-9.05151245 45.42877254 -9.05151245 45.42877254 -13.2109375 40.12109375 C-13.92507812 39.85425781 -14.63921875 39.58742187 -15.375 39.3125 C-16.50808594 38.83490234 -16.50808594 38.83490234 -17.6640625 38.34765625 C-19.22487409 37.69775309 -20.78739224 37.05193375 -22.3515625 36.41015625 C-24.375 35.3125 -24.375 35.3125 -26.375 32.3125 C-26.359375 29.3046875 -26.359375 29.3046875 -25.375 26.3125 C-22.828125 24.6953125 -22.828125 24.6953125 -19.625 23.4375 C-12.29168417 20.07494878 -10.09192841 16.71065907 -7.234375 9.390625 C-6.51991737 7.44850779 -5.83031185 5.49697425 -5.171875 3.53515625 C-3.93027198 0.07205762 -3.91296297 0.36231139 0 0 Z " fill="#000000" transform="translate(80.375,49.6875)"/>
<path d="M0 0 C3.5625 0.375 3.5625 0.375 5.15625 2.0234375 C6.7816126 4.74140497 7.69113079 7.35032239 8.625 10.375 C10.19444918 15.54525603 10.19444918 15.54525603 12.5625 20.375 C14.77683941 21.46242694 14.77683941 21.46242694 17.5625 22.375 C18.98772151 23.0445852 20.40406805 23.73328403 21.8125 24.4375 C22.84117187 24.94990234 22.84117187 24.94990234 23.890625 25.47265625 C25.5625 26.375 25.5625 26.375 26.5625 27.375 C27.03192651 32.77340486 27.03192651 32.77340486 25.35546875 34.921875 C23.23486907 36.64053095 21.11435518 37.63446941 18.625 38.75 C13.28658153 41.392091 10.55845077 43.43893712 8.5859375 49.25390625 C7.91886128 51.36970906 7.28428247 53.49611812 6.6875 55.6328125 C5.42988908 58.69823912 4.43069719 59.77849869 1.5625 61.375 C-1 61.375 -1 61.375 -3.4375 60.375 C-5.7566711 57.03421936 -7.0229617 53.81013917 -8.1875 49.9375 C-10.12245377 44.47107168 -12.48269265 41.37885195 -17.4375 38.375 C-18.69342413 37.7799553 -19.9643131 37.21516733 -21.25 36.6875 C-24.4375 35.375 -24.4375 35.375 -26.4375 32.375 C-26.421875 29.3671875 -26.421875 29.3671875 -25.4375 26.375 C-22.890625 24.7578125 -22.890625 24.7578125 -19.6875 23.5 C-13.75764459 20.78478744 -10.84376216 18.44389128 -8.4375 12.375 C-7.56982545 9.75661927 -6.78813537 7.15113771 -6.11328125 4.4765625 C-4.92890933 0.79337122 -3.81851739 0.41656553 0 0 Z " fill="#000000" transform="translate(388.4375,49.625)"/>
<path d="M0 0 C1.12735565 -0.00563965 2.2547113 -0.0112793 3.41622925 -0.01708984 C5.28022873 -0.01101715 5.28022873 -0.01101715 7.18188477 -0.00482178 C8.48594269 -0.00832642 9.79000061 -0.01183105 11.13357544 -0.01544189 C14.71615927 -0.02457915 18.29862824 -0.02101619 21.88121414 -0.01468372 C25.62523973 -0.00963062 29.36925529 -0.01431325 33.11328125 -0.01745605 C39.40146659 -0.02109772 45.68960499 -0.01629137 51.9777832 -0.0067749 C59.25438034 0.00411005 66.53086541 0.00058461 73.80745983 -0.01042771 C80.04782923 -0.0194949 86.28816484 -0.02078866 92.5285387 -0.01555037 C96.25878042 -0.01242753 99.98896941 -0.0120299 103.71920776 -0.01862335 C107.87610545 -0.02545732 112.03280902 -0.01599336 116.18969727 -0.00482178 C117.43236359 -0.00887024 118.67502991 -0.0129187 119.95535278 -0.01708984 C121.08270844 -0.0114502 122.21006409 -0.00581055 123.37158203 0 C124.35530289 0.00075405 125.33902374 0.0015081 126.35255432 0.002285 C128.68579102 0.25396729 128.68579102 0.25396729 130.68579102 2.25396729 C130.49829102 5.25396729 130.49829102 5.25396729 129.68579102 8.25396729 C126.3401185 10.48441563 125.27627531 10.50486585 121.37194824 10.50793457 C119.7188842 10.51639404 119.7188842 10.51639404 118.03242493 10.52502441 C116.21825325 10.51895172 116.21825325 10.51895172 114.36743164 10.51275635 C112.45742622 10.51801331 112.45742622 10.51801331 110.50883484 10.52337646 C107.01508219 10.53250209 103.52144753 10.52895554 100.02769279 10.52261829 C96.37356114 10.51755919 92.71943967 10.5222495 89.06530762 10.52539062 C82.9285297 10.52903053 76.79179991 10.52423054 70.6550293 10.51470947 C63.55736195 10.50382485 56.45980951 10.50735042 49.36214495 10.51836228 C43.27120749 10.52743446 37.18030465 10.52872078 31.08936262 10.52348495 C27.45020635 10.52036486 23.81110411 10.51995695 20.17195129 10.52655792 C16.11594829 10.53340094 12.06014377 10.52391976 8.00415039 10.51275635 C6.79470261 10.51680481 5.58525482 10.52085327 4.3391571 10.52502441 C3.23711441 10.51938477 2.13507172 10.51374512 0.99963379 10.50793457 C0.04025658 10.50718052 -0.91912064 10.50642647 -1.90756989 10.50564957 C-4.31420898 10.25396729 -4.31420898 10.25396729 -7.31420898 8.25396729 C-7.62670898 5.25396729 -7.62670898 5.25396729 -7.31420898 2.25396729 C-4.70728684 -0.35295485 -3.63146233 0.00278362 0 0 Z " fill="#FEFEFE" transform="translate(186.314208984375,42.74603271484375)"/>
<path d="M0 0 C4.62 0 9.24 0 14 0 C14 24.75 14 49.5 14 75 C8.06 75 2.12 75 -4 75 C-4.09036614 65.81184866 -4.1637531 56.62399242 -4.20724869 47.43549728 C-4.22812433 43.16890708 -4.25644109 38.90263664 -4.30175781 34.63623047 C-4.3452171 30.51893216 -4.36913728 26.40194143 -4.37950897 22.28443146 C-4.38690027 20.7135153 -4.40133388 19.14261598 -4.42292023 17.57183075 C-4.45195682 15.37141031 -4.45595612 13.17226087 -4.45410156 10.97167969 C-4.46298401 9.71925476 -4.47186646 8.46682983 -4.48101807 7.17645264 C-4 4 -4 4 0 0 Z " fill="#D2971B" transform="translate(119,106)"/>
<path d="M0 0 C4.95 0 9.9 0 15 0 C17 2 17 2 17.24050903 4.97390747 C17.2338472 6.88585403 17.2338472 6.88585403 17.22705078 8.83642578 C17.22734283 9.53897491 17.22763489 10.24152405 17.22793579 10.96536255 C17.22654023 13.29213731 17.21096872 15.61859354 17.1953125 17.9453125 C17.19158317 19.55671005 17.18873582 21.16810987 17.18673706 22.7795105 C17.17909431 27.02433514 17.15944039 31.2690233 17.1373291 35.51379395 C17.11688443 39.8438126 17.1077383 44.17385326 17.09765625 48.50390625 C17.07619503 57.00267383 17.04100774 65.50130423 17 74 C11.39 74 5.78 74 0 74 C0 49.58 0 25.16 0 0 Z " fill="#E5A41D" transform="translate(337,107)"/>
<path d="M0 0 C6.6 0 13.2 0 20 0 C20 20.13 20 40.26 20 61 C13.4 61 6.8 61 0 61 C0 40.87 0 20.74 0 0 Z " fill="#EDBE1F" transform="translate(453,301)"/>
<path d="M0 0 C6.6 0 13.2 0 20 0 C20 20.13 20 40.26 20 61 C13.4 61 6.8 61 0 61 C0 40.87 0 20.74 0 0 Z " fill="#FC5D3D" transform="translate(423,301)"/>
<path d="M0 0 C6.6 0 13.2 0 20 0 C20 20.13 20 40.26 20 61 C13.4 61 6.8 61 0 61 C0 40.87 0 20.74 0 0 Z " fill="#71C0E7" transform="translate(393,301)"/>
<path d="M0 0 C6.6 0 13.2 0 20 0 C20 20.13 20 40.26 20 61 C13.4 61 6.8 61 0 61 C0 40.87 0 20.74 0 0 Z " fill="#858585" transform="translate(48,301)"/>
<path d="M0 0 C0.33 0 0.66 0 1 0 C1 6.6 1 13.2 1 20 C2.68480469 19.98428955 4.36960937 19.9685791 6.10546875 19.95239258 C11.69731568 19.90384663 17.28913216 19.86946865 22.88113403 19.84456348 C26.26869572 19.8289654 29.65602758 19.80783594 33.04345703 19.77368164 C36.94569903 19.73716525 40.84761791 19.7202425 44.75 19.70703125 C45.95551514 19.69154739 47.16103027 19.67606354 48.40307617 19.66011047 C55.87267151 19.65862653 61.98936547 20.06833263 68.20703125 24.61328125 C68.73683594 25.17402344 69.26664062 25.73476562 69.8125 26.3125 C70.35519531 26.86550781 70.89789063 27.41851562 71.45703125 27.98828125 C76.73199377 34.86576402 76.36447102 40.99837152 76.1875 49.375 C76.16719727 51.19451172 76.16719727 51.19451172 76.14648438 53.05078125 C76.11124582 56.03431206 76.06197525 59.01692458 76 62 C73.36 62 70.72 62 68 62 C67.9906543 61.40574219 67.98130859 60.81148438 67.97167969 60.19921875 C67.91747007 57.46535355 67.83392722 54.73310801 67.75 52 C67.73582031 51.06542969 67.72164063 50.13085938 67.70703125 49.16796875 C67.50188386 43.30075347 66.98613001 37.60209428 63 33 C57.28051109 28.85873518 50.70937587 29.52383027 43.9453125 29.48828125 C42.68862762 29.47033005 41.43194275 29.45237885 40.13717651 29.43388367 C36.81304376 29.38899089 33.48927661 29.3566396 30.16497803 29.33044434 C26.7661017 29.30054667 23.36745128 29.25420737 19.96875 29.20898438 C13.3124831 29.12161579 6.6567567 29.06151878 0 29 C0 19.43 0 9.86 0 0 Z " fill="#489FC0" transform="translate(43,203)"/>
<path d="M0 0 C22.44 0 44.88 0 68 0 C68 39.93 68 79.86 68 121 C56.965625 121.020625 45.93125 121.04125 34.5625 121.0625 C31.07373291 121.071604 27.58496582 121.08070801 23.99047852 121.09008789 C21.24495482 121.09300673 18.49943069 121.09555536 15.75390625 121.09765625 C15.0358934 121.10026962 14.31788055 121.102883 13.57810974 121.10557556 C11.47335481 121.11285571 9.36868158 121.11390733 7.26391602 121.11352539 C6.07588882 121.115746 4.88786163 121.11796661 3.66383362 121.12025452 C1 121 1 121 0 120 C-0.09588124 118.44379604 -0.12188033 116.88323546 -0.12025452 115.32408142 C-0.12162918 114.31300827 -0.12300385 113.30193512 -0.12442017 112.26022339 C-0.12082489 111.14173004 -0.11722961 110.02323669 -0.11352539 108.87084961 C-0.11367142 107.70027512 -0.11381744 106.52970062 -0.1139679 105.32365417 C-0.11338895 102.10479057 -0.10835991 98.88596996 -0.10139394 95.66711497 C-0.09515957 92.306526 -0.09455654 88.94593627 -0.09336853 85.58534241 C-0.09025546 79.21757658 -0.0820424 72.84982784 -0.07201904 66.48206955 C-0.05976303 58.52385694 -0.05427525 50.56564157 -0.04882812 42.60742188 C-0.03907697 28.40493459 -0.01904669 14.20248462 0 0 Z M1 9 C1 45.63 1 82.26 1 120 C22.78 120 44.56 120 67 120 C67 83.37 67 46.74 67 9 C45.22 9 23.44 9 1 9 Z " fill="#448DAA" transform="translate(162,339)"/>
<path d="M0 0 C1.06122574 -0.0076664 1.06122574 -0.0076664 2.14389038 -0.01548767 C4.48867186 -0.02941741 6.83316051 -0.02842437 9.17797852 -0.02612305 C10.80461233 -0.03000823 12.43124512 -0.03434253 14.05787659 -0.03910828 C17.47009568 -0.04657783 20.88221133 -0.046274 24.29443359 -0.04101562 C28.67064037 -0.03522108 33.04642391 -0.05214781 37.42256069 -0.0753603 C40.78284691 -0.09008129 44.14303083 -0.09097157 47.50334358 -0.08785057 C49.11691183 -0.08836465 50.73048568 -0.09361851 52.34402275 -0.10366249 C54.59942106 -0.11597786 56.8539903 -0.10926544 59.109375 -0.09765625 C60.39351791 -0.09828568 61.67766083 -0.0989151 63.00071716 -0.0995636 C66.11938477 0.2746582 66.11938477 0.2746582 68.06922913 1.60261536 C69.11938477 3.2746582 69.11938477 3.2746582 68.93188477 6.3996582 C68.66375977 7.3484082 68.39563477 8.2971582 68.11938477 9.2746582 C65.17104273 10.74882922 62.52988393 10.41828076 59.23876953 10.43579102 C58.53128571 10.44075592 57.82380188 10.44572083 57.09487915 10.45083618 C54.75017329 10.46546352 52.40553504 10.4722602 50.06079102 10.4777832 C48.4341583 10.48353353 46.80752561 10.48929128 45.18089294 10.49505615 C41.76870406 10.50556732 38.35653874 10.51140944 34.94433594 10.51489258 C30.56815762 10.52038212 26.1922897 10.54441924 21.81620884 10.57286453 C18.45593855 10.59146958 15.0957434 10.59669533 11.73542595 10.59822845 C10.12184893 10.60125961 8.50827338 10.60930368 6.89474678 10.62241364 C4.63938749 10.63943253 2.38479164 10.6376047 0.12939453 10.63110352 C-1.79681984 10.63657196 -1.79681984 10.63657196 -3.76194763 10.64215088 C-6.88061523 10.2746582 -6.88061523 10.2746582 -8.83045959 8.91253662 C-9.88061523 7.2746582 -9.88061523 7.2746582 -9.69311523 4.7121582 C-7.93022163 -0.5765226 -5.04668554 0.01811829 0 0 Z " fill="#010202" transform="translate(204.880615234375,222.725341796875)"/>
<path d="M0 0 C10.23 0 20.46 0 31 0 C28.67173223 10.47720499 25.61342184 18.30252306 17 25 C11.18545834 28.61419176 6.91825168 30.01167833 0 31 C0 20.77 0 10.54 0 0 Z " fill="#EEBE1F" transform="translate(240,339)"/>
<path d="M0 0 C0 21.45 0 42.9 0 65 C-2.64 65 -5.28 65 -8 65 C-8 43.88 -8 22.76 -8 1 C-6 0 -6 0 0 0 Z " fill="#EFBD1F" transform="translate(124,107)"/>
<path d="M0 0 C1.98 0 3.96 0 6 0 C8 2 8 2 8.24050903 4.63223267 C8.23606781 5.74697968 8.23162659 6.86172668 8.22705078 8.01025391 C8.22682419 9.90198837 8.22682419 9.90198837 8.22659302 11.8319397 C8.21637898 13.21348222 8.20594697 14.59502315 8.1953125 15.9765625 C8.19158288 17.38617757 8.18873567 18.79579523 8.18673706 20.20541382 C8.17909655 23.91759382 8.15944461 27.62961761 8.1373291 31.34173584 C8.11687959 35.12884406 8.10773727 38.9159775 8.09765625 42.703125 C8.076199 50.13548793 8.04205816 57.56772208 8 65 C5.36 65 2.72 65 0 65 C0 43.55 0 22.1 0 0 Z " fill="#EEBE1F" transform="translate(346,107)"/>
<path d="M0 0 C3.31255326 -0.02683436 6.62489183 -0.0467578 9.9375 -0.0625 C10.88302734 -0.07087891 11.82855469 -0.07925781 12.80273438 -0.08789062 C14.15141602 -0.09272461 14.15141602 -0.09272461 15.52734375 -0.09765625 C16.77632446 -0.10551147 16.77632446 -0.10551147 18.05053711 -0.11352539 C20 0 20 0 21 1 C21.08631874 2.34267413 21.10706473 3.68974322 21.09765625 5.03515625 C21.09515869 5.76355713 21.09266113 6.49195801 21.09008789 7.24243164 C21.08098389 8.1730542 21.07187988 9.10367676 21.0625 10.0625 C21.041875 13.011875 21.02125 15.96125 21 19 C14.07 19 7.14 19 0 19 C0 12.73 0 6.46 0 0 Z " fill="#7E7E7E" transform="translate(453,272)"/>
<path d="M0 0 C0.83265381 0.00523682 1.66530762 0.01047363 2.52319336 0.01586914 C3.42231445 0.0190918 4.32143555 0.02231445 5.24780273 0.02563477 C6.66609375 0.03820312 6.66609375 0.03820312 8.11303711 0.05102539 C9.06243164 0.05553711 10.01182617 0.06004883 10.98999023 0.06469727 C13.34353242 0.07652411 15.69704243 0.09446018 18.05053711 0.11352539 C18.05053711 6.38352539 18.05053711 12.65352539 18.05053711 19.11352539 C11.12053711 19.11352539 4.19053711 19.11352539 -2.94946289 19.11352539 C-2.97008789 16.16415039 -2.99071289 13.21477539 -3.01196289 10.17602539 C-3.02106689 9.24540283 -3.0301709 8.31478027 -3.03955078 7.35595703 C-3.04204834 6.62755615 -3.0445459 5.89915527 -3.04711914 5.14868164 C-3.05235596 4.39981689 -3.05759277 3.65095215 -3.06298828 2.87939453 C-2.90030902 0.34894488 -2.52250103 0.1468958 0 0 Z " fill="#7E7E7E" transform="translate(394.949462890625,271.886474609375)"/>
<path d="M0 0 C1.27423828 -0.00193359 1.27423828 -0.00193359 2.57421875 -0.00390625 C3.91419922 0.00189453 3.91419922 0.00189453 5.28125 0.0078125 C6.17457031 0.00394531 7.06789063 0.00007813 7.98828125 -0.00390625 C8.83777344 -0.00261719 9.68726563 -0.00132812 10.5625 0 C11.34689453 0.00112793 12.13128906 0.00225586 12.93945312 0.00341797 C14.78125 0.1328125 14.78125 0.1328125 15.78125 1.1328125 C15.86756874 2.47548663 15.88831473 3.82255572 15.87890625 5.16796875 C15.87640869 5.89636963 15.87391113 6.62477051 15.87133789 7.37524414 C15.86223389 8.3058667 15.85312988 9.23648926 15.84375 10.1953125 C15.823125 13.1446875 15.8025 16.0940625 15.78125 19.1328125 C8.85125 19.1328125 1.92125 19.1328125 -5.21875 19.1328125 C-5.239375 16.1834375 -5.26 13.2340625 -5.28125 10.1953125 C-5.290354 9.26468994 -5.29945801 8.33406738 -5.30883789 7.37524414 C-5.31133545 6.64684326 -5.31383301 5.91844238 -5.31640625 5.16796875 C-5.32164307 4.419104 -5.32687988 3.67023926 -5.33227539 2.89868164 C-5.10659022 -0.61181485 -3.00407038 0.00431974 0 0 Z " fill="#7E7E7E" transform="translate(52.21875,271.8671875)"/>
<path d="M0 0 C6.6 0 13.2 0 20 0 C20 6.27 20 12.54 20 19 C13.4 19 6.8 19 0 19 C0 12.73 0 6.46 0 0 Z " fill="#828282" transform="translate(423,272)"/>
<path d="M0 0 C3.54255142 1.2960554 4.68581703 2.6706815 6.5625 5.9375 C7.21629847 11.82168621 6.35928668 14.69352497 3.5625 19.9375 C3.28771637 22.75403224 3.53225895 24.81048758 4.1875 27.5625 C4.5625 29.9375 4.5625 29.9375 2.5625 32.9375 C-0.3125 33.4375 -0.3125 33.4375 -3.4375 32.9375 C-5.8125 31.125 -5.8125 31.125 -7.4375 27.9375 C-7.92814856 24.21077614 -8.05178608 20.65088701 -7.4375 16.9375 C-6.92703125 16.28394531 -6.4165625 15.63039063 -5.890625 14.95703125 C-3.89315087 12.18097177 -4.31338311 10.52166538 -4.75 7.1875 C-4.86988281 6.20265625 -4.98976562 5.2178125 -5.11328125 4.203125 C-5.27376953 3.08164062 -5.27376953 3.08164062 -5.4375 1.9375 C-2.4375 -0.0625 -2.4375 -0.0625 0 0 Z " fill="#030607" transform="translate(205.4375,349.0625)"/>
<path d="M0 0 C3.29741968 0.61347343 4.74717372 1.99306517 6.73828125 4.65625 C8.42082646 7.92440366 8.37240848 10.9399028 7.6875 14.5 C6.73538888 16.52323613 5.73976728 18.52699884 4.6875 20.5 C4.40944201 23.35009442 4.64931469 25.35420154 5.375 28.125 C5.6875 30.5 5.6875 30.5 4.5625 32.3125 C1.99179796 33.94061129 0.67769342 34.08345238 -2.3125 33.5 C-5.18512668 31.24848179 -6.18222008 29.47854693 -6.6640625 25.859375 C-6.88826918 18.23634802 -6.88826918 18.23634802 -4.7578125 15.51171875 C-2.77267352 12.7486199 -3.2468418 11.17892378 -3.75 7.875 C-4.18359375 4.9609375 -4.18359375 4.9609375 -4.3125 2.5 C-2.3125 0.5 -2.3125 0.5 0 0 Z " fill="#030507" transform="translate(185.3125,410.5)"/>
<path d="M0 0 C8.58 0 17.16 0 26 0 C26 17.82 26 35.64 26 54 C25.67 54 25.34 54 25 54 C25 39.15 25 24.3 25 9 C11.635 9.495 11.635 9.495 -2 10 C-1.34 6.7 -0.68 3.4 0 0 Z " fill="#B24D33" transform="translate(281,339)"/>
<path d="M0 0 C10.23 0 20.46 0 31 0 C30.34 2.97 29.68 5.94 29 9 C19.43 9 9.86 9 0 9 C0 6.03 0 3.06 0 0 Z " fill="#E0A01C" transform="translate(240,339)"/>
<path d="M0 0 C3.3 0 6.6 0 10 0 C10 45.21 10 90.42 10 137 C9.67 137 9.34 137 9 137 C9 94.76 9 52.52 9 9 C6.03 9 3.06 9 0 9 C0 6.03 0 3.06 0 0 Z " fill="#CCCCCC" transform="translate(317,339)"/>
<path d="M0 0 C0.9796875 0.00515625 1.959375 0.0103125 2.96875 0.015625 C3.9484375 0.01046875 4.928125 0.0053125 5.9375 0 C8.46875 0.265625 8.46875 0.265625 10.46875 2.265625 C10.78125 5.265625 10.78125 5.265625 10.46875 8.265625 C7.346748 10.34695967 6.53608011 10.5394072 2.96875 10.515625 C1.80859375 10.52335938 1.80859375 10.52335938 0.625 10.53125 C-1.53125 10.265625 -1.53125 10.265625 -4.53125 8.265625 C-4.84375 5.265625 -4.84375 5.265625 -4.53125 2.265625 C-2.53125 0.265625 -2.53125 0.265625 0 0 Z " fill="#C1E3FD" transform="translate(74.53125,200.734375)"/>
<path d="M0 0 C0.9796875 0.00515625 1.959375 0.0103125 2.96875 0.015625 C3.9484375 0.01046875 4.928125 0.0053125 5.9375 0 C8.46875 0.265625 8.46875 0.265625 10.46875 2.265625 C10.78125 5.265625 10.78125 5.265625 10.46875 8.265625 C7.346748 10.34695967 6.53608011 10.5394072 2.96875 10.515625 C1.80859375 10.52335937 1.80859375 10.52335937 0.625 10.53125 C-1.53125 10.265625 -1.53125 10.265625 -4.53125 8.265625 C-4.84375 5.265625 -4.84375 5.265625 -4.53125 2.265625 C-2.53125 0.265625 -2.53125 0.265625 0 0 Z " fill="#FEFEFE" transform="translate(157.53125,42.734375)"/>
<path d="M0 0 C3.26008643 3.16952847 6.22237877 6.39937989 9 10 C7.53515625 11.20442708 6.0703125 12.40885417 4.60546875 13.61328125 C3.00101156 14.99912627 1.49914131 16.50085869 0 18 C-2.31 15.36 -4.62 12.72 -7 10 C-5.47005208 7.98177083 -3.94010417 5.96354167 -2.41015625 3.9453125 C-0.96035376 2.05642921 -0.96035376 2.05642921 0 0 Z " fill="#E2B51E" transform="translate(388,71)"/>
<path d="M0 0 C3.26008643 3.16952847 6.22237877 6.39937989 9 10 C7.53515625 11.20442708 6.0703125 12.40885417 4.60546875 13.61328125 C3.00101156 14.99912627 1.49914131 16.50085869 0 18 C-2.31 15.36 -4.62 12.72 -7 10 C-5.47005208 7.98177083 -3.94010417 5.96354167 -2.41015625 3.9453125 C-0.96035376 2.05642921 -0.96035376 2.05642921 0 0 Z " fill="#E2B51E" transform="translate(80,71)"/>
<path d="M0 0 C3.3 0 6.6 0 10 0 C10 2.97 10 5.94 10 9 C6.7 9 3.4 9 0 9 C0 6.03 0 3.06 0 0 Z " fill="#A7A7A7" transform="translate(317,339)"/>
<path d="M0 0 C3.1875 0.875 3.1875 0.875 6 2 C6.33 3.98 6.66 5.96 7 8 C2.62829989 11.03590285 2.62829989 11.03590285 -0.1875 10.875 C-2 10 -2 10 -4 7 C-3.8125 4.4375 -3.8125 4.4375 -3 2 C-2.01 1.34 -1.02 0.68 0 0 Z " fill="#070707" transform="translate(8,325)"/>
<path d="M0 0 C3 0.25 3 0.25 5 2.25 C4.625 5.375 4.625 5.375 4 8.25 C0.625 8.875 0.625 8.875 -3 9.25 C-5 7.25 -5 7.25 -5.25 4.75 C-4.86630891 0.91308908 -3.76694968 0.31391247 0 0 Z " fill="#090706" transform="translate(312,407.75)"/>
<path d="M0 0 C2.97 0 5.94 0 9 0 C9 2.64 9 5.28 9 8 C6.03 8 3.06 8 0 8 C0 5.36 0 2.72 0 0 Z " fill="#AFAFAF" transform="translate(143,340)"/>
<path d="M0 0 C2.5 0.25 2.5 0.25 4.5 2.25 C4.6875 5.3125 4.6875 5.3125 4.5 8.25 C3.5 9.25 3.5 9.25 -0.0625 9.3125 C-1.196875 9.291875 -2.33125 9.27125 -3.5 9.25 C-4.125 5.875 -4.125 5.875 -4.5 2.25 C-2.5 0.25 -2.5 0.25 0 0 Z " fill="#020405" transform="translate(239.5,180.75)"/>
<path d="M0 0 C2.31 0 4.62 0 7 0 C6.02433888 1.16959987 5.044375 2.33561177 4.0625 3.5 C3.51722656 4.1496875 2.97195313 4.799375 2.41015625 5.46875 C1.94480469 5.9740625 1.47945313 6.479375 1 7 C0.67 7 0.34 7 0 7 C0 4.69 0 2.38 0 0 Z " fill="#D79B1C" transform="translate(337,339)"/>
<path d="M0 0 C1.65 0 3.3 0 5 0 C5 1.65 5 3.3 5 5 C2 4 2 4 0.8125 1.9375 C0.544375 1.298125 0.27625 0.65875 0 0 Z " fill="#E8A71E" transform="translate(127,340)"/>
</svg>
