<?xml version="1.0" encoding="UTF-8"?>
<svg version="1.1" xmlns="http://www.w3.org/2000/svg" width="512" height="512">
<path d="M0 0 C5.90906422 3.45624511 11.15295385 7.16855337 13.76269531 13.72949219 C15.20590184 19.52538911 14.62006711 25.84697998 14.48828125 31.77734375 C14.43338453 37.78519286 14.43338453 37.78519286 16.82104492 43.12133789 C18.57969484 44.83987704 20.40890827 46.38386918 22.3125 47.9375 C28.51561933 56.55373212 29.59032939 65.59905756 30.3125 75.9375 C31.59125 75.834375 32.87 75.73125 34.1875 75.625 C40.03999375 75.65269319 44.59881673 77.50712317 49.3125 80.9375 C54.31886051 86.72288228 55.57117536 91.96552929 55.125 99.5 C53.59276315 117.15720556 43.73873296 128.49362768 30.78125 139.59765625 C27.39441729 142.80764485 26.44910972 144.70801249 25.9375 149.3125 C26.37489788 153.54067955 27.1352507 156.14358472 30.3125 158.9375 C33.39242983 160.67436487 36.50606599 162.19022859 39.73046875 163.640625 C42.3125 164.9375 42.3125 164.9375 43.3125 166.9375 C43.75646083 172.15403972 43.75646083 172.15403972 42.25 174.8125 C39.05089337 176.67004578 36.97940841 176.40313916 33.3125 175.9375 C29.85351176 174.48533001 26.57933381 172.77796975 23.3125 170.9375 C22.18699863 175.01534936 22.08778382 178.9961558 21.99609375 183.203125 C21.97531265 183.99652283 21.95453156 184.78992065 21.93312073 185.60736084 C21.86790027 188.13398844 21.80886856 190.66071721 21.75 193.1875 C21.7067886 194.90365616 21.66317347 196.61980222 21.61914062 198.3359375 C21.51148966 202.53635627 21.41221227 206.73685527 21.3125 210.9375 C26.5925 210.6075 31.8725 210.2775 37.3125 209.9375 C37.75326874 208.28598434 37.75326874 208.28598434 38.20294189 206.60110474 C45.08269164 180.82473104 51.9708701 155.0506251 58.87001038 129.2794342 C61.99999053 117.58664625 65.12590036 105.89280026 68.24202538 94.19631195 C70.09839366 87.22978499 71.96065541 80.26485331 73.82811928 73.30129242 C74.89079943 69.33787467 75.95050822 65.37371946 77.00280762 61.40753174 C77.9787674 57.72932875 78.96273544 54.05336515 79.95302773 50.3789959 C80.47434429 48.43650975 80.98713832 46.49174243 81.4995575 44.54689026 C85.56003992 29.5618091 85.56003992 29.5618091 90.2421875 25.09765625 C91.20511719 24.55431641 91.20511719 24.55431641 92.1875 24 C92.82429688 23.61972656 93.46109375 23.23945313 94.1171875 22.84765625 C101.1012324 19.95213586 106.91686686 21.62745629 113.98095703 23.36474609 C115.67797702 23.78162661 117.37718803 24.18961843 119.07763672 24.59228516 C122.11873296 25.31507478 125.15340079 26.06091642 128.1875 26.8125 C129.16195068 27.04461182 130.13640137 27.27672363 131.14038086 27.51586914 C138.62417511 29.42189498 144.8500623 31.84366801 149.75 38 C153.92959184 45.85763266 152.21936335 53.31862534 149.96435547 61.5456543 C149.71374359 62.48727417 149.46313171 63.42889404 149.20492554 64.39904785 C148.37145815 67.52222059 147.52561397 70.64189966 146.6796875 73.76171875 C146.08470658 75.98106561 145.49049398 78.20061857 144.89700317 80.42036438 C143.32199424 86.30272501 141.73649355 92.18220853 140.14880371 98.06115723 C138.59164458 103.83401573 137.04424006 109.60948491 135.49609375 115.38476562 C132.72455545 125.71825201 129.94289222 136.04898016 127.15697861 146.37859917 C125.19825444 153.64369089 123.24568955 160.91040824 121.29785728 168.1784277 C119.99390255 173.04386356 118.68839328 177.90888171 117.3827858 182.77387428 C116.76107878 185.09209975 116.14008667 187.41051706 115.51983261 189.7291317 C114.66507159 192.92386978 113.80769405 196.11789463 112.94970703 199.31176758 C112.56898733 200.73883624 112.56898733 200.73883624 112.18057632 202.19473457 C111.94777843 203.05934744 111.71498055 203.9239603 111.47512817 204.81477356 C111.27350634 205.56727292 111.0718845 206.31977228 110.86415291 207.09507465 C110.3125 208.9375 110.3125 208.9375 109.3125 210.9375 C110.281875 210.875625 111.25125 210.81375 112.25 210.75 C117.69173304 210.79406262 122.91469812 211.91722437 127.1484375 215.484375 C133.14550758 222.09577909 133.65517067 228.76429176 133.625 237.375 C133.64111328 238.29087891 133.65722656 239.20675781 133.67382812 240.15039062 C133.67892664 247.25261785 132.68567936 252.11534076 128 257.6875 C123.52833949 261.43121577 120.13022479 263.12421752 114.3125 262.9375 C114.26351563 263.9275 114.21453125 264.9175 114.1640625 265.9375 C113.21990089 283.28372484 113.21990089 283.28372484 109.875 287.9375 C108.3125 288.9375 108.3125 288.9375 105.3125 288.9375 C105.03634942 290.53737236 104.79242375 292.142833 104.5625 293.75 C104.42328125 294.64332031 104.2840625 295.53664063 104.140625 296.45703125 C104.19734375 297.27558594 104.2540625 298.09414063 104.3125 298.9375 C106.18906762 300.65357137 106.18906762 300.65357137 108.3125 301.9375 C109.25 304.3125 109.25 304.3125 109.3125 306.9375 C107.27553142 311.54748152 107.27553142 311.54748152 104.27734375 312.76171875 C102.07700775 313.79291089 102.07700775 313.79291089 101.484375 316.3203125 C101.34515625 317.22523438 101.2059375 318.13015625 101.0625 319.0625 C100.83820313 320.42761719 100.83820313 320.42761719 100.609375 321.8203125 C100.46242188 322.86832031 100.46242188 322.86832031 100.3125 323.9375 C100.951875 324.06125 101.59125 324.185 102.25 324.3125 C103.2709375 324.621875 103.2709375 324.621875 104.3125 324.9375 C107.79303164 331.89856328 104.52407575 343.01862185 103.50830078 350.40234375 C103.31400359 351.84711093 103.120221 353.2919474 102.9269104 354.73684692 C102.40335523 358.63837672 101.8723687 362.53886126 101.33978128 366.43916702 C100.78166516 370.53436432 100.22975805 374.63039892 99.67697144 378.72631836 C98.74793178 385.60294214 97.81416517 392.47891116 96.87744141 399.35449219 C95.79685844 407.28635027 94.72319979 415.21912152 93.65338147 423.15243816 C92.62119539 430.80582559 91.5846244 438.45861264 90.54589462 446.1111145 C90.10522871 449.3579051 89.66598123 452.60488283 89.22787857 455.85202026 C88.71106516 459.68075696 88.19036352 463.508946 87.66674423 467.33675766 C87.47597725 468.7357297 87.28648724 470.1348766 87.09841919 471.53421402 C84.10109152 493.81623081 84.10109152 493.81623081 78.3125 499.9375 C73.8628965 503.19330744 69.9824246 504.06000351 64.54787827 504.07172108 C63.58691388 504.07617892 62.62594949 504.08063676 61.63586497 504.08522969 C60.05651129 504.08495315 60.05651129 504.08495315 58.44525146 504.08467102 C57.32450139 504.08834771 56.20375132 504.0920244 55.04903913 504.0958125 C51.27975847 504.10685799 47.51050537 504.11069464 43.74121094 504.11450195 C41.04427425 504.12076587 38.34734051 504.12739976 35.65040588 504.13441467 C27.54815041 504.15416445 19.44589371 504.16424274 11.34362018 504.17314246 C7.5272284 504.17752721 3.71083801 504.18289348 -0.10555267 504.18813133 C-12.79308916 504.20514102 -25.48062479 504.21963549 -38.16817093 504.22688007 C-41.45960745 504.22878993 -44.75104397 504.23071027 -48.04248047 504.23266602 C-49.26956833 504.23339163 -49.26956833 504.23339163 -50.52144584 504.2341319 C-63.77544272 504.24243343 -77.02934939 504.26777356 -90.28330687 504.30024669 C-103.8933433 504.33332024 -117.50333388 504.35132904 -131.11341071 504.35452431 C-138.75401134 504.35668898 -146.39448036 504.3654314 -154.03504181 504.39098549 C-160.54148315 504.41269644 -167.0477609 504.42074097 -173.55423436 504.41101871 C-176.87284379 504.40647517 -180.19084211 504.41054613 -183.50945091 504.42778015 C-187.11069166 504.44543589 -190.71107596 504.43842288 -194.31231689 504.42524719 C-195.87828625 504.44170106 -195.87828625 504.44170106 -197.47589135 504.45848733 C-205.42385589 504.3882784 -210.77580195 502.72260248 -216.5625 497.1875 C-221.90660351 489.01416523 -220.98225319 479.52322747 -220.953125 470.125 C-220.95447466 468.58618102 -220.9564177 467.04736246 -220.95892334 465.50854492 C-220.96186044 462.29439201 -220.95762271 459.08035079 -220.94824219 455.86621094 C-220.93684847 451.76426806 -220.94341555 447.66258698 -220.95538712 443.56065369 C-220.96264406 440.38633279 -220.96030025 437.21207307 -220.95513153 434.03775024 C-220.95380562 432.52601083 -220.95540528 431.0142657 -220.96009064 429.50253296 C-221.00386627 411.4120494 -221.00386627 411.4120494 -216.6875 404.9375 C-216.38828725 402.85622147 -216.38828725 402.85622147 -216.43212891 400.54882812 C-216.42516998 399.66360474 -216.41821106 398.77838135 -216.41104126 397.86633301 C-216.41203827 396.91013062 -216.41303528 395.95392822 -216.4140625 394.96875 C-216.39375417 392.93228636 -216.37290306 390.89582808 -216.3515625 388.859375 C-216.3290738 385.65815734 -216.31253619 382.45715208 -216.30664062 379.25585938 C-216.2970314 376.15976711 -216.26313263 373.06462576 -216.2265625 369.96875 C-216.23413071 368.55873718 -216.23413071 368.55873718 -216.24185181 367.12023926 C-216.07245005 355.49184437 -211.62666181 345.13009543 -203.58203125 336.7421875 C-199.01338034 332.48021023 -194.48167501 329.27745529 -188.6875 326.9375 C-187.718125 326.545625 -186.74875 326.15375 -185.75 325.75 C-178.39536253 323.79876965 -170.7513574 323.759169 -163.18359375 323.62109375 C-162.2197023 323.60031265 -161.25581085 323.57953156 -160.26271057 323.55812073 C-157.21687182 323.49331104 -154.17095505 323.43406284 -151.125 323.375 C-149.04621624 323.33174938 -146.96744006 323.28813312 -144.88867188 323.24414062 C-139.8216923 323.13770112 -134.75463512 323.03624547 -129.6875 322.9375 C-129.78772461 322.21531281 -129.88794922 321.49312561 -129.99121094 320.74905396 C-130.93439511 313.95100321 -131.87628466 307.15277422 -132.81671143 300.35434151 C-133.30026694 296.85901183 -133.78432704 293.36375357 -134.26953125 289.86865234 C-134.82701357 285.85274478 -135.38231737 281.83653864 -135.9375 277.8203125 C-136.11249023 276.56195587 -136.28748047 275.30359924 -136.46777344 274.0071106 C-136.62793945 272.84605804 -136.78810547 271.68500549 -136.953125 270.48876953 C-137.09524414 269.46284698 -137.23736328 268.43692444 -137.38378906 267.37991333 C-137.6875 264.9375 -137.6875 264.9375 -137.6875 262.9375 C-138.71875 262.855 -139.75 262.7725 -140.8125 262.6875 C-146.49116342 261.58840385 -149.52712168 259.47421724 -153 254.875 C-156.34774518 249.04744358 -155.90655889 243.68064731 -155.9375 237.125 C-155.958125 236.04412109 -155.97875 234.96324219 -156 233.84960938 C-156.03307022 227.11568594 -155.70085351 222.35214756 -151.07421875 217.109375 C-145.76571688 212.66731826 -141.39490273 211.05203712 -134.48828125 210.39453125 C-133.58891846 210.30792236 -132.68955566 210.22131348 -131.76293945 210.13208008 C-130.73559692 210.03576294 -130.73559692 210.03576294 -129.6875 209.9375 C-132.450831 199.34466981 -135.23136101 188.75651921 -138.03377056 178.17395592 C-139.33459062 173.25957753 -140.62949643 168.34379948 -141.91088867 163.42431641 C-143.14835972 158.67434939 -144.40136088 153.92872864 -145.66510963 149.18568802 C-146.14387003 147.37791897 -146.61707239 145.56866826 -147.08453941 143.75794601 C-147.7416948 141.21645035 -148.41865038 138.68100367 -149.1003418 136.14599609 C-149.28808167 135.40080719 -149.47582153 134.65561829 -149.66925049 133.8878479 C-151.06892689 128.79751482 -153.11645473 125.8226422 -156.6875 121.9375 C-158.04759722 119.21730556 -157.63818167 117.15379284 -157.5 114.125 C-157.44296465 108.78268842 -158.10382826 106.94278017 -161.6875 102.9375 C-163.15063363 98.42553294 -163.98723006 94.35440572 -163 89.6875 C-162.896875 88.78 -162.79375 87.8725 -162.6875 86.9375 C-163.43902344 86.10992187 -164.19054687 85.28234375 -164.96484375 84.4296875 C-168.58666345 80.3020696 -169.59560413 75.5357936 -170.9375 70.3125 C-171.19273437 69.37148437 -171.44796875 68.43046875 -171.7109375 67.4609375 C-172.38669396 64.957082 -173.04475338 62.45000619 -173.6875 59.9375 C-173.87151367 59.2563916 -174.05552734 58.5752832 -174.24511719 57.87353516 C-175.62729115 51.82461711 -174.8271128 47.33201317 -172.1484375 41.89453125 C-167.96694784 36.29312398 -163.31092373 34.06955721 -156.75390625 32.40234375 C-155.99891342 32.19694473 -155.24392059 31.99154572 -154.46604919 31.77992249 C-152.06437355 31.13019627 -149.65762755 30.50226626 -147.25 29.875 C-145.66953632 29.45130537 -144.08945396 29.02618567 -142.50976562 28.59960938 C-139.40270413 27.76316333 -136.29302517 26.93788209 -133.18041992 26.12231445 C-130.24564106 25.35253186 -127.31667129 24.56531047 -124.3918457 23.75854492 C-123.71657333 23.57365005 -123.04130096 23.38875519 -122.3455658 23.19825745 C-120.52824765 22.69967594 -118.71207573 22.19692172 -116.89599609 21.69384766 C-110.25599324 20.12858142 -104.32146113 19.61382079 -98.25 23.0625 C-91.33369663 27.63353419 -89.45895919 34.91711001 -87.4375 42.5 C-87.1701001 43.47710937 -86.9027002 44.45421875 -86.62719727 45.4609375 C-84.91440518 52.07344259 -84.3956942 57.61905988 -84.8046875 64.4296875 C-84.61053226 68.5846097 -82.65808079 70.18427878 -79.6875 72.9375 C-78.75007459 75.74977622 -78.55279156 77.52496844 -78.5625 80.4375 C-78.55992187 81.2109375 -78.55734375 81.984375 -78.5546875 82.78125 C-78.6875 84.9375 -78.6875 84.9375 -79.6875 87.9375 C-79.0275 87.9375 -78.3675 87.9375 -77.6875 87.9375 C-74.19923092 92.51585317 -73.50468317 95.34546134 -73.83642578 101.09375 C-73.95449438 110.12242197 -71.70728469 118.16593856 -69.3046875 126.8125 C-68.84671557 128.51057697 -68.39029698 130.20907355 -67.93533325 131.90795898 C-66.73981821 136.35556392 -65.5234804 140.79720245 -64.3024292 145.237854 C-63.08209151 149.69027966 -61.88175553 154.14808312 -60.6796875 158.60546875 C-58.2285993 167.68106454 -55.75213813 176.74957968 -53.26817322 185.81622314 C-52.10810094 190.05412218 -50.95394572 194.29363238 -49.79910278 198.53295898 C-48.76334112 202.33486618 -47.72555096 206.13621731 -46.6875 209.9375 C-44.3775 210.2675 -42.0675 210.5975 -39.6875 210.9375 C-39.80544106 205.6862788 -39.92966602 200.43525903 -40.05981445 195.18432617 C-40.103227 193.3966073 -40.14489729 191.60884526 -40.18481445 189.82104492 C-40.2423646 187.25686609 -40.30610203 184.69290588 -40.37109375 182.12890625 C-40.39616249 180.92265343 -40.39616249 180.92265343 -40.42173767 179.69203186 C-40.17970696 176.01080002 -40.17970696 176.01080002 -41.6875 172.9375 C-42.9823411 165.02542227 -43.21880495 156.98406401 -43.66015625 148.98828125 C-43.7483963 147.41008947 -43.8366483 145.83189837 -43.9249115 144.25370789 C-44.10939727 140.93951704 -44.29133472 137.62519632 -44.47192383 134.31079102 C-44.65414301 130.97422847 -44.84132382 127.63800866 -45.03344727 124.30200195 C-45.98156176 107.81116421 -46.86619795 91.31122666 -47.12109375 74.79296875 C-47.15566177 73.6579744 -47.1902298 72.52298004 -47.22584534 71.35359192 C-47.26972474 63.45971344 -45.7137073 56.79913523 -41.6875 49.9375 C-39.5219574 47.82341003 -39.5219574 47.82341003 -37.4375 46.125 C-32.62019988 41.26267839 -32.97846792 35.85746817 -32.875 29.375 C-32.88305664 28.38072998 -32.89111328 27.38645996 -32.89941406 26.36206055 C-32.9542022 17.71490619 -31.53828496 10.9931954 -25.47265625 4.48046875 C-18.14036252 -1.85707178 -9.08203072 -2.61685631 0 0 Z M29.9375 90.5625 C27.0555235 94.7746195 27.16165856 99.34143474 26.99609375 104.33203125 C26.95419922 105.53408203 26.91230469 106.73613281 26.86914062 107.97460938 C26.82982422 109.22048828 26.79050781 110.46636719 26.75 111.75 C26.70681641 113.01521484 26.66363281 114.28042969 26.61914062 115.58398438 C26.5132553 118.70171889 26.41117595 121.81953035 26.3125 124.9375 C30.26927551 121.71540792 33.86223332 118.72538472 36.625 114.375 C37.09550781 113.65183594 37.56601562 112.92867187 38.05078125 112.18359375 C41.1679151 106.63451646 42.36462356 101.28614945 42.3125 94.9375 C41.5540942 91.80742583 41.5540942 91.80742583 39.3125 89.9375 C35.37389077 88.72011169 33.41548335 88.18282718 29.9375 90.5625 Z " fill="#030202" transform="translate(288.6875,5.0625)"/>
<path d="M0 0 C74.58 0 149.16 0 226 0 C226 6.6642801 225.6415423 12.56435122 224.73046875 19.08203125 C224.81941406 20.04496094 224.90835938 21.00789063 225 22 C226.64803153 23.35629924 228.31437065 24.69072186 230 26 C230.12890625 28.47265625 230.12890625 28.47265625 229.5625 31.0625 C228.92266049 33.59857657 228.92266049 33.59857657 229 36 C230.86380567 37.70515674 230.86380567 37.70515674 233 39 C233.9375 41.375 233.9375 41.375 234 44 C232.70984765 46.91981848 231.96236508 48.61029703 228.9453125 49.83203125 C226.75934272 50.84217215 226.75934272 50.84217215 226.34765625 53.3125 C226.25355469 54.199375 226.15945313 55.08625 226.0625 56 C225.62890625 58.73046875 225.62890625 58.73046875 225 61 C222.5 62.3125 222.5 62.3125 220 63 C217.81071028 67.11539153 217.38299699 71.50622439 216.8515625 76.0703125 C216.75434906 76.85505951 216.65713562 77.63980652 216.55697632 78.44833374 C216.34897416 80.13098207 216.14387278 81.81399107 215.94140625 83.49731445 C215.40518195 87.95054138 214.84671581 92.40097636 214.2890625 96.8515625 C214.17870667 97.7356781 214.06835083 98.6197937 213.95465088 99.53070068 C213.07396028 106.53713816 212.07451668 113.52060091 211 120.5 C209.31923008 131.47886434 207.88905772 142.48134369 206.5 153.5 C204.9296977 165.95230304 203.27508259 178.37923732 201.38330078 190.78759766 C200.59288501 195.97424605 199.83426919 201.16060335 199.15625 206.36328125 C199.0236377 207.37769287 198.89102539 208.39210449 198.75439453 209.43725586 C198.51005132 211.32926475 198.27102432 213.22197166 198.03857422 215.11547852 C196.72436396 225.27563604 196.72436396 225.27563604 194 228 C192.05105041 228.09664967 190.09854545 228.12187121 188.14720154 228.12025452 C186.87528961 228.12162918 185.60337769 228.12300385 184.29292297 228.12442017 C182.87033058 228.12088055 181.44773842 228.11724573 180.02514648 228.11352539 C178.53733319 228.11324353 177.04951976 228.11340124 175.56170654 228.1139679 C171.51023 228.1142559 167.4587828 228.10835867 163.40731311 228.10139394 C159.17788003 228.09516092 154.94844636 228.09455664 150.7190094 228.09336853 C142.70440278 228.09025506 134.68980973 228.08204146 126.67520911 228.07201904 C117.55323316 228.06085839 108.43125658 228.05534758 99.30927551 228.05032361 C80.5395093 228.03985886 61.76975574 228.02225912 43 228 C43.00666183 227.02360565 43.01332367 226.0472113 43.02018738 225.04122925 C43.0810542 215.83082781 43.12599939 206.62046728 43.15543652 197.4099102 C43.17107932 192.67488077 43.1922923 187.94001397 43.22631836 183.20507812 C43.25896121 178.63391653 43.27686344 174.06291117 43.28463173 169.491642 C43.29016639 167.74935574 43.3009743 166.00707783 43.31719017 164.26485825 C43.33903013 161.82075401 43.34196422 159.3772919 43.34057617 156.93310547 C43.351362 156.21596878 43.36214783 155.49883209 43.3732605 154.75996399 C43.34440954 150.05197453 42.20468587 147.10033043 40 143 C39.62818909 140.65084839 39.62818909 140.65084839 39.63110352 138.37841797 C39.62422012 137.51666962 39.61733673 136.65492126 39.61024475 135.76705933 C39.61640305 134.85135162 39.62256134 133.93564392 39.62890625 132.9921875 C39.61151242 131.01562337 39.59392817 129.03906091 39.57617188 127.0625 C39.56614614 123.97555279 39.56249237 120.88872055 39.56420898 117.80175781 C39.54370248 100.75675281 38.40722601 87.45581302 26.44921875 74.29296875 C23.73767005 71.74290185 21.4869097 70.16152164 17.9074707 68.97412109 C14.03091445 67.54196814 10.7244412 66.14832496 8 63 C5.02050707 56.12942087 4.91584188 48.18234721 4.3125 40.8125 C4.10521542 38.77741598 3.89237125 36.74289017 3.67382812 34.70898438 C3.26204219 30.83227161 2.8789777 26.95451112 2.51806641 23.07275391 C2.04133958 18.13520164 1.3130293 13.27729578 0.35620117 8.40893555 C0 6 0 6 0 0 Z " fill="#FEED92" transform="translate(164,268)"/>
<path d="M0 0 C0.9169313 -0.00845947 1.83386261 -0.01691895 2.77857971 -0.02563477 C4.28417702 -0.01652573 4.28417702 -0.01652573 5.82019043 -0.00723267 C6.87894882 -0.01248962 7.93770721 -0.01774658 9.02854919 -0.02316284 C12.53671924 -0.03639266 16.04443745 -0.02761394 19.5526123 -0.01748657 C21.98494555 -0.01950644 24.41727821 -0.02241715 26.84960938 -0.02618408 C31.95070148 -0.03061149 37.05163614 -0.02416282 42.15270996 -0.01016235 C48.70023378 0.00692956 55.24738871 -0.00290937 61.79489899 -0.02087975 C66.8185302 -0.03170622 71.84207357 -0.02827643 76.8657074 -0.02049637 C79.28030948 -0.01849122 81.69491947 -0.0209646 84.10951233 -0.02793503 C87.48073538 -0.03553063 90.85135613 -0.02397127 94.22253418 -0.00723267 C95.22626572 -0.01330536 96.22999725 -0.01937805 97.2641449 -0.02563477 C98.1810762 -0.01717529 99.09800751 -0.00871582 100.04272461 0 C100.83986626 0.00113108 101.6370079 0.00226215 102.45830536 0.00342751 C105.0659936 0.48061423 105.95115274 1.27251833 107.5213623 3.38095093 C107.90231323 6.48616028 107.90231323 6.48616028 107.9095459 10.35922241 C107.91480286 11.06524597 107.92005981 11.77126953 107.92547607 12.49868774 C107.93868343 14.83336491 107.92993493 17.16736053 107.9197998 19.50204468 C107.92182057 21.12485383 107.92473202 22.7476621 107.92849731 24.37046814 C107.93292183 27.77256918 107.92648648 31.17443398 107.91247559 34.57650757 C107.89539707 38.93579928 107.90521533 43.29453635 107.92319298 47.65380764 C107.93403908 51.00557119 107.93058048 54.3572035 107.9228096 57.70897102 C107.92080917 59.31612272 107.92326139 60.92328636 107.93024826 62.53042412 C107.93787503 64.77836479 107.92624183 67.0254108 107.9095459 69.27328491 C107.90715912 70.55219101 107.90477234 71.83109711 107.90231323 73.14875793 C107.48509951 76.68862405 106.94944478 77.85164747 104.5213623 80.38095093 C102.45830536 80.88152218 102.45830536 80.88152218 100.04272461 80.88215637 C99.1257933 80.89199051 98.208862 80.90182465 97.2641449 80.91195679 C96.26041336 80.90228882 95.25668182 80.89262085 94.22253418 80.88265991 C93.16377579 80.8880629 92.1050174 80.89346588 91.01417542 80.89903259 C87.50587215 80.91156491 83.9983823 80.89499823 80.4901123 80.87704468 C78.05777951 80.87719956 75.62544646 80.87868675 73.19311523 80.88145447 C68.09197092 80.88284049 62.99110708 80.8702461 57.89001465 80.84750366 C51.34247438 80.81911881 44.79540039 80.82185384 38.24782562 80.83459377 C33.22418212 80.84153985 28.2006469 80.83377388 23.17701721 80.82133675 C20.76241979 80.81681183 18.34781078 80.81649447 15.93321228 80.82040215 C12.56196151 80.8233038 9.19135937 80.80685679 5.82019043 80.78500366 C4.81645889 80.78950531 3.81272736 80.79400696 2.77857971 80.79864502 C1.86164841 80.78874039 0.9447171 80.77883575 0 80.76863098 C-0.79714165 80.76620109 -1.59428329 80.76377119 -2.41558075 80.76126766 C-5.02289656 80.28061887 -5.9094208 79.4910439 -7.4786377 77.38095093 C-7.85958862 74.23104858 -7.85958862 74.23104858 -7.86682129 70.29501343 C-7.87207825 69.57763 -7.87733521 68.86024658 -7.88275146 68.12112427 C-7.89595815 65.74917851 -7.88721146 63.37790355 -7.8770752 61.00595093 C-7.87909575 59.35832592 -7.88200703 57.71070178 -7.88577271 56.06307983 C-7.89019695 52.60970547 -7.88376191 49.15656387 -7.86975098 45.70321655 C-7.85265887 41.27432733 -7.86249954 36.84598347 -7.88046837 32.41711426 C-7.89130359 29.01477949 -7.8878611 25.61257424 -7.88008499 22.2102356 C-7.87808225 20.57713761 -7.88054485 18.94402791 -7.88752365 17.3109436 C-7.89513403 15.02927455 -7.88354079 12.74849141 -7.86682129 10.46688843 C-7.86443451 9.16799683 -7.86204773 7.86910522 -7.85958862 6.53085327 C-7.4786377 3.38095093 -7.4786377 3.38095093 -6.23474312 1.70789146 C-4.00514191 0.02317016 -2.77785003 0.00394154 0 0 Z " fill="#8795DA" transform="translate(88.4786376953125,415.6190490722656)"/>
<path d="M0 0 C0.89935571 -0.00782324 1.79871142 -0.01564648 2.72532034 -0.02370679 C3.71450917 -0.01701463 4.703698 -0.01032246 5.72286224 -0.00342751 C6.77278178 -0.00810748 7.82270131 -0.01278745 8.90443659 -0.01760924 C12.43986364 -0.02962225 15.97490757 -0.02007724 19.51033783 -0.01066017 C22.0379026 -0.01472306 24.5654656 -0.02006334 27.09302521 -0.02659035 C33.25592082 -0.03887764 39.4186734 -0.0370408 45.58157098 -0.02835242 C50.58911119 -0.0215844 55.59662066 -0.02065533 60.60416412 -0.02392387 C61.31615932 -0.02438357 62.02815452 -0.02484327 62.76172534 -0.0253169 C64.20801255 -0.02627605 65.65429976 -0.02724869 67.10058695 -0.02823468 C80.6707051 -0.03679463 94.24076251 -0.02694496 107.81087071 -0.01083358 C119.46121179 0.00257017 131.11146321 0.00024224 142.76180267 -0.01358986 C156.28249956 -0.02963501 169.80314317 -0.0359706 183.32384825 -0.02675307 C184.76489225 -0.02579739 186.20593626 -0.02485428 187.64698029 -0.02392387 C188.71058414 -0.02322963 188.71058414 -0.02322963 189.79567495 -0.02252137 C194.79870483 -0.01992828 199.80170099 -0.02430934 204.80472565 -0.03136253 C211.5352045 -0.04064226 218.26548737 -0.03406009 224.99595833 -0.01667976 C227.47158589 -0.01270036 229.94722767 -0.01387363 232.42284966 -0.02046776 C235.7915227 -0.02861586 239.15964462 -0.01844306 242.52828217 -0.00342751 C244.01206541 -0.01346575 244.01206541 -0.01346575 245.52582407 -0.02370679 C246.87485764 -0.01197193 246.87485764 -0.01197193 248.25114441 0 C249.02908403 0.00048706 249.80702365 0.00097411 250.6085372 0.00147593 C253.16078969 0.47730711 254.04908345 1.35193642 255.6255722 3.37752342 C256.25315379 6.65952863 256.08903727 9.97969267 256.0630722 13.31502342 C256.08305267 14.22187889 256.10303314 15.12873436 256.12361908 16.0630703 C256.12297455 16.93898827 256.12233002 17.81490623 256.12166595 18.71736717 C256.12351898 19.51521629 256.12537201 20.31306541 256.12728119 21.13509178 C255.38916039 24.43418643 254.3802275 25.37545454 251.6255722 27.37752342 C248.25356469 27.9865749 244.90914267 27.91230824 241.49068451 27.87872887 C240.44878322 27.88426326 239.40688193 27.88979766 238.33340788 27.89549977 C234.83094631 27.90914787 231.3291922 27.89411393 227.82674408 27.87923241 C225.32035773 27.88301405 222.81397347 27.88851281 220.3075943 27.89560509 C214.19993457 27.90814284 208.09253859 27.90197419 201.98489201 27.8869295 C194.87435954 27.87008031 187.76387868 27.87327828 180.65333241 27.87702359 C167.96744217 27.88290399 155.28165115 27.86872356 142.59578705 27.84407616 C130.28227265 27.82015483 117.96889082 27.81307165 105.65535736 27.82356834 C92.25110035 27.83497433 78.84690468 27.83691158 65.44264841 27.82247025 C64.01367856 27.82094439 62.5847087 27.81942403 61.15573883 27.81790924 C60.10108085 27.81677252 60.10108085 27.81677252 59.02511665 27.81561283 C54.06713241 27.81086753 49.10917554 27.81272319 44.15119171 27.81697464 C37.47978171 27.82241208 30.80858288 27.81167264 24.13719749 27.79001999 C21.68456837 27.78444209 19.23192158 27.78399595 16.77929115 27.78897285 C13.43947446 27.7949015 10.10022535 27.78246656 6.7604599 27.76520348 C5.78264793 27.77121352 4.80483596 27.77722357 3.79739332 27.78341573 C2.90363005 27.77497579 2.00986678 27.76653585 1.08901978 27.75784016 C0.31807747 27.75681103 -0.45286483 27.7557819 -1.24716902 27.75472158 C-3.96441056 27.27290972 -5.36054919 26.23353727 -7.3744278 24.37752342 C-7.87613678 22.1568203 -7.87613678 22.1568203 -7.87052155 19.59627342 C-7.87116608 18.67201561 -7.87181061 17.7477578 -7.87247467 16.79549217 C-7.8524942 15.83256248 -7.83251373 14.8696328 -7.8119278 13.87752342 C-7.81901764 12.91459373 -7.82610748 11.95166405 -7.83341217 10.95955467 C-7.76929557 3.88700071 -7.76929557 3.88700071 -6.12257624 1.76232469 C-3.92228645 0.01935823 -2.78527534 0.00174382 0 0 Z " fill="#F79241" transform="translate(153.37442779541016,228.6224765777588)"/>
<path d="M0 0 C1.22478813 -0.005476 1.22478813 -0.005476 2.47431946 -0.01106262 C5.17571755 -0.01917474 7.87651711 -0.00555386 10.57788086 0.0090332 C12.45210266 0.00955168 14.32632501 0.00903446 16.20054626 0.00752258 C20.12889725 0.00761233 24.05704312 0.01804831 27.98535156 0.03613281 C33.02854795 0.0588357 38.07144494 0.05936157 43.11467838 0.05261517 C46.98447852 0.04927904 50.85420999 0.05589826 54.72399712 0.0657444 C56.58399535 0.06960169 58.44400121 0.07074244 60.30400276 0.06915855 C62.89943207 0.06878902 65.49447265 0.08137593 68.08984375 0.09765625 C68.8634021 0.09517883 69.63696045 0.09270142 70.43395996 0.09014893 C75.75148148 0.14357132 75.75148148 0.14357132 77.98022461 2.37231445 C78.22073364 4.47305298 78.22073364 4.47305298 78.20727539 7.09741211 C78.20712433 8.07827789 78.20697327 9.05914368 78.20681763 10.06973267 C78.19649506 11.13122528 78.18617249 12.1927179 78.17553711 13.28637695 C78.17270721 14.37115326 78.16987732 15.45592957 78.16696167 16.57357788 C78.15574039 20.04826759 78.13063223 23.52270227 78.10522461 26.99731445 C78.09519733 29.34887324 78.08607104 31.70043605 78.07788086 34.05200195 C78.05579472 39.8255269 78.02229806 45.59890246 77.98022461 51.37231445 C76.45884888 51.39418823 76.45884888 51.39418823 74.90673828 51.41650391 C71.14368432 51.47447698 67.3812294 51.55170904 63.61865234 51.63476562 C61.99017052 51.66801981 60.3615733 51.69605029 58.73291016 51.71875 C56.391671 51.75228802 54.05148975 51.8046003 51.71069336 51.8605957 C50.98246872 51.86698563 50.25424408 51.87337555 49.50395203 51.87995911 C46.73904918 51.96038617 44.49057203 52.09798356 42.02905273 53.42114258 C40.36845285 56.510415 40.49856329 59.6773023 40.46850586 63.1027832 C40.45055466 63.85320389 40.43260345 64.60362457 40.41410828 65.37678528 C40.35997274 67.77107136 40.32610045 70.16515777 40.29272461 72.55981445 C40.25955425 74.18419122 40.22506485 75.80854162 40.18920898 77.43286133 C40.10424491 81.41253501 40.03744996 85.39214915 39.98022461 89.37231445 C33.03852439 89.42290174 26.09687145 89.45800024 19.1550293 89.48217773 C16.7920555 89.49225369 14.42909422 89.50591474 12.06616211 89.52319336 C8.67550573 89.5473717 5.28501376 89.55878144 1.89428711 89.56762695 C0.83279449 89.57794952 -0.22869812 89.58827209 -1.32235718 89.59890747 C-2.30322296 89.59905853 -3.28408875 89.59920959 -4.29467773 89.59936523 C-5.5937355 89.60602707 -5.5937355 89.60602707 -6.91903687 89.61282349 C-9.01977539 89.37231445 -9.01977539 89.37231445 -11.01977539 87.37231445 C-11.22349136 84.708196 -11.3029707 82.14759219 -11.29443359 79.48193359 C-11.29954453 78.66716049 -11.30465546 77.85238739 -11.30992126 77.01292419 C-11.32385754 74.3110323 -11.32285746 71.60939434 -11.32055664 68.9074707 C-11.32444142 67.03421432 -11.32877563 65.16095882 -11.33354187 63.28770447 C-11.34101281 59.35762682 -11.34070654 55.427639 -11.33544922 51.49755859 C-11.3296541 46.4554978 -11.34658236 41.41380428 -11.36979389 36.37180424 C-11.38450974 32.50196678 -11.38540586 28.63221819 -11.38228416 24.76235771 C-11.38279848 22.90317495 -11.38805685 21.04398735 -11.39809608 19.18483162 C-11.41040141 16.58700674 -11.4037046 13.98990276 -11.39208984 11.39208984 C-11.39973358 10.62055573 -11.40737732 9.84902161 -11.41525269 9.05410767 C-11.38732216 6.23480916 -11.30632519 3.92688115 -9.9977417 1.39434814 C-6.79836718 -0.25879859 -3.51645601 -0.03483821 0 0 Z " fill="#B2D6F8" transform="translate(246.019775390625,327.627685546875)"/>
<path d="M0 0 C3.46254408 0.78888739 6.85020447 1.78965967 10.25 2.8125 C11.14074219 3.07353516 12.03148437 3.33457031 12.94921875 3.60351562 C14.73800738 4.12924813 16.52514527 4.66063144 18.31054688 5.19775391 C20.14625753 5.74533426 21.9863899 6.27825181 23.83007812 6.79833984 C24.72662109 7.05437988 25.62316406 7.31041992 26.546875 7.57421875 C27.75875488 7.913927 27.75875488 7.913927 28.99511719 8.26049805 C31 9 31 9 33 11 C33.53516933 17.42203197 32.21107709 22.65070645 30.3125 28.75 C29.75366248 30.61894246 29.19773968 32.4887586 28.64453125 34.359375 C28.36561035 35.30103516 28.08668945 36.24269531 27.79931641 37.21289062 C26.58476173 41.44788028 25.53710118 45.71871002 24.5 50 C22.60349771 57.7760425 20.46660057 65.4599564 18.23046875 73.14453125 C16.51952622 79.06702461 14.96178596 85.01145002 13.5 91 C11.84016502 97.79938829 10.02260111 104.53109671 8.0625 111.25 C5.86359088 118.79394974 3.87137631 126.3683317 2 134 C-0.32078158 143.45924347 -2.87642952 152.82671969 -5.60546875 162.17578125 C-7.1256948 167.43482657 -8.55959994 172.71853311 -10 178 C-25.18 178 -40.36 178 -56 178 C-55.34 174.7 -54.68 171.4 -54 168 C-50 167 -50 167 -46.6875 168 C-42.65078699 169.09470183 -40.05159396 168.89135067 -36 168 C-34.66812207 166.88833136 -34.66812207 166.88833136 -34.8125 164.0625 C-34.66721267 160.89107141 -34.66721267 160.89107141 -37 159 C-39.18745776 158.22960999 -41.40008429 157.52938697 -43.625 156.875 C-46.780625 155.946875 -46.780625 155.946875 -50 155 C-48.68 149.72 -47.36 144.44 -46 139 C-35.66929134 140.76377953 -35.66929134 140.76377953 -31.8125 142.125 C-28.0015114 143.3106409 -24.98790511 143.26586034 -21 143 C-18.79142762 141.17213728 -18.79142762 141.17213728 -18.5625 138.5625 C-18.72499515 135.86090857 -18.72499515 135.86090857 -20.9453125 134.5078125 C-24.94729304 132.53241034 -29.00617187 131.43751548 -33.3125 130.3125 C-34.14845703 130.08755859 -34.98441406 129.86261719 -35.84570312 129.63085938 C-37.89530908 129.08039378 -39.94741633 128.53925615 -42 128 C-41.26363449 122.58008446 -40.22834956 117.32284809 -39 112 C-37.79601562 112.09539062 -36.59203125 112.19078125 -35.3515625 112.2890625 C-33.77608123 112.40159688 -32.20055805 112.51354573 -30.625 112.625 C-29.43390625 112.72167969 -29.43390625 112.72167969 -28.21875 112.8203125 C-26.14971776 112.96058587 -24.07374464 112.98758237 -22 113 C-19.79142762 111.17213728 -19.79142762 111.17213728 -19.5625 108.5625 C-19.74218333 105.87612587 -19.74218333 105.87612587 -21.875 104.375 C-26.13752256 102.49949007 -30.51367463 101.22829491 -35 100 C-33.84941444 94.60204011 -32.57578241 89.29012667 -31 84 C-21.04075829 85.692891 -21.04075829 85.692891 -16.1875 87.125 C-12.90250919 88.02676218 -10.38422656 88.3845712 -7 88 C-4.93597315 87.01951062 -4.93597315 87.01951062 -4 85 C-4.2793434 82.99174743 -4.60909933 80.98954964 -5 79 C-5.63091553 78.823479 -6.26183105 78.64695801 -6.91186523 78.46508789 C-9.75471508 77.66764242 -12.59611298 76.86514132 -15.4375 76.0625 C-16.43072266 75.78470703 -17.42394531 75.50691406 -18.44726562 75.22070312 C-19.39150391 74.95322266 -20.33574219 74.68574219 -21.30859375 74.41015625 C-22.18314209 74.16402588 -23.05769043 73.91789551 -23.95874023 73.66430664 C-26 73 -26 73 -27 72 C-26.43472695 66.57337876 -25.2396672 61.30770132 -24 56 C-23.21625 56.144375 -22.4325 56.28875 -21.625 56.4375 C-19.830625 56.7159375 -19.830625 56.7159375 -18 57 C-17.16855469 57.13019531 -16.33710938 57.26039062 -15.48046875 57.39453125 C-14.60003906 57.51183594 -13.71960938 57.62914062 -12.8125 57.75 C-11.97332031 57.86859375 -11.13414062 57.9871875 -10.26953125 58.109375 C-7.93841565 58.20053569 -7.93841565 58.20053569 -6.1796875 56.71484375 C-4.66361306 54.90546639 -4.66361306 54.90546639 -5.3125 51.8125 C-5.539375 50.884375 -5.76625 49.95625 -6 49 C-7.58298026 48.5196682 -9.16639978 48.04078388 -10.75 47.5625 C-11.63171875 47.29566406 -12.5134375 47.02882812 -13.421875 46.75390625 C-15.60565835 46.11531506 -17.78835498 45.53224167 -20 45 C-19.47606294 39.13190493 -18.23891142 34.45126259 -16 29 C-14.6875 29.29166667 -13.375 29.58333333 -12.0625 29.875 C-11.24265625 30.05546875 -10.4228125 30.2359375 -9.578125 30.421875 C-7.91882902 30.79395955 -6.26223352 31.17841412 -4.609375 31.578125 C2.77801095 33.52077184 2.77801095 33.52077184 10 32 C10 29.69 10 27.38 10 25 C2.51098392 21.66967005 -4.98396341 19.65849033 -13 18 C-12.35922527 14.99381219 -11.68941871 11.99540543 -11 9 C-10.76603516 7.96746094 -10.76603516 7.96746094 -10.52734375 6.9140625 C-8.93976154 0.59041573 -6.27008206 -0.54614968 0 0 Z " fill="#99CC67" transform="translate(395,39)"/>
<path d="M0 0 C1.24808945 -0.00241196 2.49617889 -0.00482391 3.78208923 -0.00730896 C7.07149428 -0.00608741 10.35967199 0.01877272 13.64886475 0.0524292 C15.65266255 0.06640847 17.65561246 0.06281632 19.65942383 0.05249023 C23.54416896 0.03362413 27.42777425 0.04319189 31.3125 0.0625 C32.49505875 0.05754013 33.67761749 0.05258026 34.89601135 0.04747009 C45.67019142 0.19914303 53.7231414 2.89635784 61.609375 10.3359375 C74.4816269 25.23931396 69.58984375 43.10833637 69.58984375 62.62890625 C34.27984375 62.62890625 -1.03015625 62.62890625 -37.41015625 62.62890625 C-37.41015625 20.04067096 -37.41015625 20.04067096 -28.22265625 8.69140625 C-19.95641796 1.28717356 -10.73474599 -0.12055853 0 0 Z " fill="#FB84AC" transform="translate(122.41015625,341.37109375)"/>
<path d="M0 0 C7.05462131 4.37386521 12.35613788 8.93656168 15.125 16.9375 C15.67976903 20.41253744 15.64137236 23.79993547 15.5625 27.3125 C15.5514624 28.38612793 15.5404248 29.45975586 15.52905273 30.56591797 C15.25536533 45.18023654 14.22836319 59.78184911 13.28100586 74.36474609 C12.36042805 88.55247468 11.67226793 102.72978689 11.125 116.9375 C-2.735 116.9375 -16.595 116.9375 -30.875 116.9375 C-31.72471759 112.68891207 -32.12860537 108.87834142 -32.35571289 104.57128906 C-32.3948732 103.84684097 -32.43403351 103.12239288 -32.47438049 102.37599182 C-32.60255499 99.98521826 -32.72530889 97.59420335 -32.84765625 95.203125 C-32.93571368 93.52462765 -33.02396875 91.84614066 -33.1124115 90.16766357 C-33.29719684 86.6439618 -33.47923963 83.12013135 -33.65942383 79.59619141 C-33.88813714 75.12826834 -34.12406219 70.66076175 -34.36220646 66.19333267 C-34.5464164 62.72029739 -34.72638886 59.24705155 -34.90521049 55.77373505 C-34.99038264 54.12980969 -35.07685931 52.48595128 -35.16478157 50.84217072 C-35.61176761 42.44552071 -35.96563478 34.05246004 -36.05249023 25.64355469 C-36.06608865 24.95042805 -36.07968706 24.25730141 -36.09369755 23.54317093 C-36.1164318 16.20554561 -33.87021182 11.16218369 -28.9375 5.8515625 C-21.10070848 -1.4212175 -10.35364964 -3.88261861 0 0 Z " fill="#B2D6F8" transform="translate(289.875,52.0625)"/>
<path d="M0 0 C0.84429565 -0.00978378 1.68859131 -0.01956757 2.55847168 -0.02964783 C5.35585967 -0.05958779 8.15319977 -0.08098659 10.95068359 -0.09985352 C11.90756451 -0.10642534 12.86444542 -0.11299717 13.85032272 -0.11976814 C18.91810376 -0.15235995 23.98586382 -0.176808 29.05371094 -0.19628906 C33.24022175 -0.21408084 37.42605631 -0.24886723 41.61230469 -0.29882812 C46.6733058 -0.35915482 51.73368134 -0.38978229 56.79502487 -0.39946175 C58.71909233 -0.40799841 60.64314389 -0.42677222 62.56700516 -0.45620537 C81.12447091 -0.72476521 81.12447091 -0.72476521 87.22705078 4.54780579 C92.81532943 10.74775808 92.22128422 17.43201461 92.26318359 25.41967773 C92.27554047 26.70178131 92.28789734 27.98388489 92.30062866 29.30484009 C92.32303583 32.01310536 92.33265139 34.72109066 92.33496094 37.42944336 C92.34024173 40.88216953 92.39157934 44.3325364 92.45447731 47.78462791 C92.50542202 51.10047694 92.50597887 54.41594855 92.51318359 57.73217773 C92.53990143 58.9626181 92.56661926 60.19305847 92.59414673 61.46078491 C92.54906441 67.17959406 92.43826574 71.14294841 88.55273438 75.53735352 C87.27891299 76.76362935 86.00274275 77.9874704 84.72412109 79.20874023 C83.70042886 80.52871898 82.70668648 81.87248415 81.74462891 83.23803711 C72.06862205 96.61014885 60.5880818 111.83975387 43.46679688 114.83227539 C35.47720595 115.7454773 27.55665481 115.80863813 19.53662109 115.52124023 C18.87398758 115.49877228 18.21135406 115.47630432 17.52864075 115.45315552 C-11.30752059 114.3916044 -11.30752059 114.3916044 -17.58837891 107.77124023 C-18.42369141 106.50280273 -18.42369141 106.50280273 -19.27587891 105.20874023 C-19.63501877 104.66990204 -19.99415863 104.13106384 -20.36418152 103.57589722 C-21.72808159 100.03462835 -21.5621393 96.51385795 -21.55053711 92.77172852 C-21.55564804 91.92246796 -21.56075897 91.0732074 -21.56602478 90.19821167 C-21.57992064 87.39175359 -21.57896386 84.58554112 -21.57666016 81.77905273 C-21.5805474 79.82616077 -21.58488213 77.87326966 -21.58964539 75.92037964 C-21.59710781 71.82653056 -21.59681637 67.73276772 -21.59155273 63.63891602 C-21.58576142 58.39767511 -21.60268087 53.15678797 -21.62589741 47.91560555 C-21.64064431 43.88180483 -21.64150508 39.8480891 -21.63838768 35.8142662 C-21.63890052 33.88220393 -21.64413126 31.95013685 -21.6541996 30.01810074 C-21.66656365 27.31334857 -21.65977229 24.60928256 -21.64819336 21.90454102 C-21.6558371 21.10953186 -21.66348083 20.31452271 -21.6713562 19.49542236 C-21.61802067 13.84645051 -20.51139633 9.63224435 -16.55712891 5.34545898 C-15.96931641 4.8672168 -15.38150391 4.38897461 -14.77587891 3.89624023 C-14.18806641 3.40510742 -13.60025391 2.91397461 -12.99462891 2.40795898 C-9.00154807 -0.37812242 -4.65939299 0.0340488 0 0 Z M-8.25384521 13.23077393 C-9.90699195 16.43014845 -9.68303157 19.71205962 -9.64819336 23.22851562 C-9.65184402 24.04504105 -9.65549469 24.86156647 -9.65925598 25.70283508 C-9.6673681 28.40423318 -9.65374722 31.10503273 -9.63916016 33.80639648 C-9.63864168 35.68061828 -9.6391589 37.55484063 -9.64067078 39.42906189 C-9.64058103 43.35741287 -9.63014505 47.28555875 -9.61206055 51.21386719 C-9.58935766 56.25706358 -9.58883179 61.29996057 -9.59557819 66.34319401 C-9.59891431 70.21299414 -9.5922951 74.08272561 -9.58244896 77.95251274 C-9.57859167 79.81251097 -9.57745092 81.67251683 -9.57903481 83.53251839 C-9.57940434 86.1279477 -9.56681743 88.72298828 -9.55053711 91.31835938 C-9.55301453 92.09191772 -9.55549194 92.86547607 -9.55804443 93.66247559 C-9.66181823 97.89555187 -9.66181823 97.89555187 -7.27587891 101.20874023 C-5.09298576 101.50080834 -5.09298576 101.50080834 -2.55078125 101.43579102 C-1.07948257 101.43556442 -1.07948257 101.43556442 0.42153931 101.43533325 C1.48303192 101.42501068 2.54452454 101.41468811 3.63818359 101.40405273 C4.7229599 101.40122284 5.80773621 101.39839294 6.92538452 101.39547729 C10.40007423 101.38425601 13.87450891 101.35914786 17.34912109 101.33374023 C19.70067988 101.32371295 22.05224269 101.31458667 24.40380859 101.30639648 C30.17733354 101.28431034 35.9507091 101.25081368 41.72412109 101.20874023 C41.73870361 100.19448975 41.75328613 99.18023926 41.76831055 98.13525391 C41.82628362 94.37219994 41.90351568 90.60974502 41.98657227 86.84716797 C42.01982645 85.21868614 42.04785693 83.59008892 42.07055664 81.96142578 C42.10409466 79.62018662 42.15640694 77.28000537 42.21240234 74.93920898 C42.21879227 74.21098434 42.22518219 73.4827597 42.23176575 72.73246765 C42.31219281 69.9675648 42.4497902 67.71908766 43.77294922 65.25756836 C46.86222164 63.59696847 50.02910894 63.72707891 53.45458984 63.69702148 C54.20501053 63.67907028 54.95543121 63.66111908 55.72859192 63.6426239 C58.122878 63.58848837 60.51696441 63.55461608 62.91162109 63.52124023 C64.53599786 63.48806988 66.16034826 63.45358047 67.78466797 63.41772461 C71.76434165 63.33276054 75.7439558 63.26596558 79.72412109 63.20874023 C79.77470838 56.26704001 79.80980688 49.32538708 79.83398438 42.38354492 C79.84406033 40.02057112 79.85772138 37.65760984 79.875 35.29467773 C79.89917834 31.90402136 79.91058808 28.51352939 79.91943359 25.12280273 C79.92975616 24.06131012 79.94007874 22.9998175 79.95071411 21.90615845 C79.95086517 20.92529266 79.95101624 19.94442688 79.95117188 18.93383789 C79.9556131 18.06779938 79.96005432 17.20176086 79.96463013 16.30947876 C79.91969293 13.98958679 79.91969293 13.98958679 77.72412109 12.20874023 C75.06000264 12.00502426 72.49939883 11.92554493 69.83374023 11.93408203 C69.01896713 11.9289711 68.20419403 11.92386017 67.36473083 11.91859436 C64.66283894 11.90465808 61.96120098 11.90565816 59.25927734 11.90795898 C57.38602096 11.9040742 55.51276546 11.89973999 53.63951111 11.89497375 C49.70943346 11.88750281 45.77944564 11.88780909 41.84936523 11.89306641 C36.80730444 11.89886153 31.76561093 11.88193327 26.72361088 11.85872173 C22.85377342 11.84400588 18.98402483 11.84310977 15.11416435 11.84623146 C13.25498159 11.84571714 11.39579399 11.84045878 9.53663826 11.83041954 C6.93881338 11.81811421 4.3417094 11.82481102 1.74389648 11.83642578 C0.58659531 11.82496017 0.58659531 11.82496017 -0.59408569 11.81326294 C-3.4133842 11.84119346 -5.72131221 11.92219043 -8.25384521 13.23077393 Z " fill="#040403" transform="translate(244.27587890625,315.791259765625)"/>
<path d="M0 0 C0.18062988 0.73822998 0.36125977 1.47645996 0.54736328 2.23706055 C3.77960307 15.40797827 7.06272089 28.53479377 10.87182617 41.55224609 C12.76885032 48.07346388 14.4245263 54.63466792 16.0246582 61.23413086 C18.01269071 69.30517573 20.36415141 77.26324499 22.76538086 85.2199707 C23.05550049 86.19023193 23.34562012 87.16049316 23.64453125 88.16015625 C23.90596924 89.02261963 24.16740723 89.88508301 24.43676758 90.77368164 C25 93 25 93 25 96 C17.74 96 10.48 96 3 96 C0.07970607 86.38020824 -2.60541313 76.76385452 -5 67 C-6.68855958 60.11694594 -8.43573444 53.28032482 -10.5 46.5 C-14.6474507 32.85213125 -17.96285601 18.93343783 -21 5 C-17.87605609 4.16267257 -14.75068026 3.33082018 -11.625 2.5 C-10.73554688 2.26152344 -9.84609375 2.02304688 -8.9296875 1.77734375 C-8.07890625 1.55175781 -7.228125 1.32617188 -6.3515625 1.09375 C-5.56604004 0.88427734 -4.78051758 0.67480469 -3.97119141 0.45898438 C-2 0 -2 0 0 0 Z " fill="#F7D843" transform="translate(204,121)"/>
<path d="M0 0 C3.66671124 3.59987015 4.50290628 8.49753758 5.75 13.3125 C6.09998047 14.55676758 6.09998047 14.55676758 6.45703125 15.82617188 C7.7610138 20.77271646 8.74044423 25.02459965 7 30 C4.49220731 31.48817698 2.73958702 32.22568617 0 33 C-0.71671875 33.2263916 -1.4334375 33.4527832 -2.171875 33.68603516 C-4.60432524 34.43635091 -7.04762775 35.13019142 -9.5 35.8125 C-10.39984619 36.06459229 -11.29969238 36.31668457 -12.22680664 36.57641602 C-14.14659267 37.11103788 -16.0672757 37.6424475 -17.98876953 38.17089844 C-20.03536077 38.73439964 -22.08056866 39.30294424 -24.12451172 39.87597656 C-27.2253164 40.74326064 -30.33050334 41.59269804 -33.4375 42.4375 C-34.40171875 42.70860596 -35.3659375 42.97971191 -36.359375 43.2590332 C-45.71375119 45.75557331 -45.71375119 45.75557331 -50 44 C-52.86189159 39.77469039 -53.99434905 34.96973952 -55.1875 30.0625 C-55.36474609 29.38509766 -55.54199219 28.70769531 -55.72460938 28.00976562 C-56.81637472 23.61319709 -57.43064434 19.55811863 -57 15 C-54.97056074 12.4090112 -53.24045807 11.54052475 -50.0703125 10.82421875 C-49.28487061 10.63899658 -48.49942871 10.45377441 -47.69018555 10.26293945 C-46.4204187 9.97809692 -46.4204187 9.97809692 -45.125 9.6875 C-43.3208675 9.26096017 -41.51750357 8.83115898 -39.71484375 8.3984375 C-38.31081299 8.06150879 -38.31081299 8.06150879 -36.87841797 7.71777344 C-32.11549749 6.53007316 -27.4022313 5.17724648 -22.6875 3.8125 C-21.82334473 3.56266357 -20.95918945 3.31282715 -20.06884766 3.05541992 C-19.24562012 2.81670166 -18.42239258 2.5779834 -17.57421875 2.33203125 C-16.79449707 2.10612305 -16.01477539 1.88021484 -15.21142578 1.64746094 C-13.79079578 1.23152908 -12.37226905 0.80830582 -10.95654297 0.37597656 C-6.87782096 -0.8518184 -4.13367668 -1.31526076 0 0 Z " fill="#FB84AC" transform="translate(184,39)"/>
<path d="M0 0 C0.18062988 0.70793701 0.36125977 1.41587402 0.54736328 2.14526367 C3.82790651 14.97419787 7.1637717 27.77233648 10.86743164 40.48608398 C12.8064428 47.19256024 14.51278122 53.94185887 16.1652832 60.72387695 C17.74436048 67.1422899 19.54440263 73.47723571 21.47680664 79.79785156 C23 84.80921301 23 84.80921301 23 87 C15.74 87 8.48 87 1 87 C-2.36866982 76.89399055 -2.36866982 76.89399055 -3.4296875 72.46875 C-3.66494141 71.50259766 -3.90019531 70.53644531 -4.14257812 69.54101562 C-4.38427734 68.53748047 -4.62597656 67.53394531 -4.875 66.5 C-6.60213026 59.45005142 -8.38250724 52.44320625 -10.5 45.5 C-13.49881223 35.64466239 -15.90331053 25.63938631 -18.35302734 15.63623047 C-19.22384345 12.08790128 -20.11089327 8.5437856 -21 5 C-14.08291779 2.28257485 -7.5339677 -0.16915644 0 0 Z " fill="#F7D843" transform="translate(172,130)"/>
<path d="M0 0 C1 1 1 1 1.4375 3.8125 C1.293125 4.864375 1.14875 5.91625 1 7 C-0.98075027 8.36176581 -2.98079663 9.69593116 -5 11 C-5.66743877 13.58655333 -5.66743877 13.58655333 -5 16 C-2.6870518 18.3129482 -1.52095125 18.49580975 1.625 19.125 C2.44226563 19.29257813 3.25953125 19.46015625 4.1015625 19.6328125 C4.72804687 19.75398438 5.35453125 19.87515625 6 20 C6.495 22.475 6.495 22.475 7 25 C4.01407567 27.50070618 1.48833603 28.63760847 -2.26953125 29.61328125 C-3.31278564 29.88906006 -4.35604004 30.16483887 -5.4309082 30.44897461 C-6.5468335 30.73393799 -7.66275879 31.01890137 -8.8125 31.3125 C-9.96000732 31.6122876 -11.10751465 31.9120752 -12.28979492 32.22094727 C-14.67405754 32.84317806 -17.05924645 33.46186947 -19.4453125 34.07714844 C-22.85434231 34.96218502 -26.25601698 35.87087757 -29.65625 36.7890625 C-31.70827903 37.33874442 -33.76035996 37.88823265 -35.8125 38.4375 C-36.76552002 38.69635986 -37.71854004 38.95521973 -38.70043945 39.22192383 C-39.58948975 39.4567749 -40.47854004 39.69162598 -41.39453125 39.93359375 C-42.16643799 40.14040771 -42.93834473 40.34722168 -43.73364258 40.56030273 C-46.24720548 41.04796047 -48.44640184 41.20939878 -51 41 C-51.66 40.34 -52.32 39.68 -53 39 C-52.9375 36.5625 -52.9375 36.5625 -52 34 C-50.7315625 33.319375 -50.7315625 33.319375 -49.4375 32.625 C-48.633125 32.08875 -47.82875 31.5525 -47 31 C-46.49968794 27.41571853 -46.49968794 27.41571853 -47 24 C-48.88267985 22.11732015 -51.57062042 22.59379463 -54.08984375 22.37890625 C-56 22 -56 22 -58 20 C-58.3125 17.5 -58.3125 17.5 -58 15 C-55.3447102 13.2298068 -54.04165432 12.61586029 -51.0703125 11.921875 C-50.28487061 11.73343018 -49.49942871 11.54498535 -48.69018555 11.35083008 C-47.84367432 11.15255615 -46.99716309 10.95428223 -46.125 10.75 C-36.86815858 8.51383019 -27.71934555 5.98481612 -18.57421875 3.33203125 C-17.79369141 3.10572021 -17.01316406 2.87940918 -16.20898438 2.64624023 C-14.79686767 2.23312431 -13.38650027 1.81394954 -11.97851562 1.38696289 C-7.85043085 0.15193011 -4.32016105 -0.25920966 0 0 Z " fill="#DEE5E3" transform="translate(196,82)"/>
<path d="M0 0 C11.88 0 23.76 0 36 0 C36 11.88 36 23.76 36 36 C24.12 36 12.24 36 0 36 C0 24.12 0 12.24 0 0 Z " fill="#8694D8" transform="translate(262,181)"/>
<path d="M0 0 C2.91128986 1.85854665 5.42922037 3.85844074 7 7 C7.07187519 9.71975715 7.0927862 12.40674632 7.0625 15.125 C7.041875 17.72375 7.02125 20.3225 7 23 C-0.26 23 -7.52 23 -15 23 C-15.0825 20.298125 -15.165 17.59625 -15.25 14.8125 C-15.30462402 13.54950073 -15.30462402 13.54950073 -15.36035156 12.26098633 C-15.41839705 8.32278723 -15.28408982 6.44276011 -13.09765625 3.03515625 C-8.73313173 -1.19932657 -5.99070711 -1.5493208 0 0 Z " fill="#8390D2" transform="translate(284,17)"/>
<path d="M0 0 C5.61 0 11.22 0 17 0 C12.02838782 6.01826738 6.70170757 11.66337352 1 17 C0.67 17 0.34 17 0 17 C0 11.39 0 5.78 0 0 Z " fill="#32A2F6" transform="translate(298,391)"/>
<path d="M0 0 C2.3001261 5.20554855 2.3001261 5.20554855 0.9375 8.8125 C-1 11 -1 11 -3.375 12.125 C-6 12 -6 12 -8.875 9.9375 C-11 7 -11 7 -11 3.8125 C-8.90173807 -2.08886169 -5.29195142 -0.9984814 0 0 Z " fill="#060503" transform="translate(396,306)"/>
</svg>
